<svg width="24" height="24" viewBox="0 0 24 24" fill="none" xmlns="http://www.w3.org/2000/svg">
<path d="M3 6.75C3 4.67893 4.67893 3 6.75 3H17.25C19.3211 3 21 4.67893 21 6.75V6.75C21 7.44036 20.4404 8 19.75 8H4.25C3.55964 8 3 7.44036 3 6.75V6.75Z" fill="black" fill-opacity="0.32"/>
<path d="M4 10.6C4 10.0399 4 9.75992 4.10899 9.54601C4.20487 9.35785 4.35785 9.20487 4.54601 9.10899C4.75992 9 5.03995 9 5.6 9H18.4C18.9601 9 19.2401 9 19.454 9.10899C19.6422 9.20487 19.7951 9.35785 19.891 9.54601C20 9.75992 20 10.0399 20 10.6V13C20 14.8599 20 15.7899 19.7956 16.5529C19.2408 18.6235 17.6235 20.2408 15.5529 20.7956C14.7899 21 13.8599 21 12 21V21C10.1401 21 9.21009 21 8.44709 20.7956C6.37653 20.2408 4.75925 18.6235 4.20445 16.5529C4 15.7899 4 14.8599 4 13V10.6Z" fill="black" fill-opacity="0.32"/>
<path d="M10 12L10.0597 11.9851C11.3336 11.6666 12.6664 11.6666 13.9403 11.9851L14 12" stroke="#22272F" stroke-width="1.5" stroke-linecap="round"/>
</svg>
