<svg width="24" height="24" viewBox="0 0 24 24" fill="none" xmlns="http://www.w3.org/2000/svg">
<path d="M3 6.75C3 4.67893 4.67893 3 6.75 3H17.25C19.3211 3 21 4.67893 21 6.75V6.75C21 7.44036 20.4404 8 19.75 8H4.25C3.55964 8 3 7.44036 3 6.75V6.75Z" fill="#22272F"/>
<path fill-rule="evenodd" clip-rule="evenodd" d="M4.10899 9.54601C4 9.75992 4 10.0399 4 10.6V13C4 14.8599 4 15.7899 4.20445 16.5529C4.75925 18.6235 6.37653 20.2408 8.44709 20.7956C9.21008 21 10.1401 21 12 21C13.8599 21 14.7899 21 15.5529 20.7956C17.6235 20.2408 19.2408 18.6235 19.7956 16.5529C20 15.7899 20 14.8599 20 13V10.6C20 10.0399 20 9.75992 19.891 9.54601C19.7951 9.35785 19.6422 9.20487 19.454 9.10899C19.2401 9 18.9601 9 18.4 9H5.6C5.03995 9 4.75992 9 4.54601 9.10899C4.35785 9.20487 4.20487 9.35785 4.10899 9.54601ZM10.2416 12.7127C11.3961 12.4241 12.6039 12.4241 13.7584 12.7127L13.8181 12.7276C14.2199 12.8281 14.6271 12.5837 14.7276 12.1819C14.8281 11.7801 14.5837 11.3729 14.1819 11.2724L14.1222 11.2575C12.7288 10.9091 11.2712 10.9091 9.87781 11.2575L9.8181 11.2724C9.41625 11.3729 9.17193 11.7801 9.27239 12.1819C9.37285 12.5837 9.78006 12.8281 10.1819 12.7276L10.2416 12.7127Z" fill="#22272F"/>
</svg>
