<svg width="24" height="24" viewBox="0 0 24 24" fill="none" xmlns="http://www.w3.org/2000/svg">
<path d="M12 19.5V19.5C12 20.3284 11.3284 21 10.5 21H4.4C3.55992 21 3.13988 21 2.81901 20.8365C2.53677 20.6927 2.3073 20.4632 2.16349 20.181C2 19.8601 2 19.4401 2 18.6V7.4C2 6.55992 2 6.13988 2.16349 5.81901C2.3073 5.53677 2.53677 5.3073 2.81901 5.16349C3.13988 5 3.55992 5 4.4 5H4.5" stroke="#22272F" stroke-width="1.5"/>
<path d="M12 19.5V19.5C12 20.3284 12.6716 21 13.5 21H19.6C20.4401 21 20.8601 21 21.181 20.8365C21.4632 20.6927 21.6927 20.4632 21.8365 20.181C22 19.8601 22 19.4401 22 18.6V7.4C22 6.55992 22 6.13988 21.8365 5.81901C21.6927 5.53677 21.4632 5.3073 21.181 5.16349C20.8601 5 20.4401 5 19.6 5H19.5" stroke="#22272F" stroke-width="1.5"/>
<path fill-rule="evenodd" clip-rule="evenodd" d="M4.5 3.91646V17.8469C4.5 18.4555 5.03939 18.926 5.64501 18.8659C6.94513 18.7369 9.01337 18.6075 10 18.9521C10.4678 19.1155 10.8384 19.279 11.1269 19.4265V19.4265C11.3074 19.5188 11.5 19.3674 11.5 19.1646V4.14447C11.5 3.96702 11.3787 3.81667 11.2198 3.73762V3.73762C10.9194 3.58815 10.5197 3.41447 10 3.23293C8.95745 2.86875 6.70721 2.88983 5.43169 2.93656C4.90624 2.95581 4.5 3.39065 4.5 3.91646ZM12.7802 3.73762C12.6213 3.81667 12.5 3.96702 12.5 4.14447V19.1646C12.5 19.3674 12.6926 19.5188 12.8731 19.4265V19.4265C13.1616 19.279 13.5322 19.1155 14 18.9521C14.9855 18.6079 17.05 18.7442 18.3504 18.8783C18.9576 18.9408 19.5 18.4698 19.5 17.8594V3.92992C19.5 3.40579 19.0963 2.97174 18.5727 2.95038C17.2979 2.89837 15.0437 2.86833 14 3.23293C13.4803 3.41447 13.0806 3.58815 12.7802 3.73762V3.73762Z" fill="#22272F"/>
</svg>
