<svg width="24" height="24" viewBox="0 0 24 24" fill="none" xmlns="http://www.w3.org/2000/svg">
<path d="M5 18.1443V3.23437C5 3.10254 5.10226 2.99364 5.23393 2.98723C6.04174 2.94787 8.73363 2.85596 10 3.29833C11.0027 3.64858 11.5586 3.96958 11.8169 4.14392C11.9244 4.21646 12.0756 4.21646 12.1831 4.14392C12.4414 3.96958 12.9973 3.64858 14 3.29833C15.2664 2.85596 17.9583 2.94786 18.7661 2.98722C18.8977 2.99364 19 3.10253 19 3.23436V18.1443C19 18.2971 18.8659 18.415 18.7143 18.3956C17.849 18.2845 15.2405 18.0011 14 18.4345C13.0201 18.7767 12.467 19.119 12.2012 19.3153C12.0864 19.4 11.9136 19.4 11.7988 19.3153C11.533 19.119 10.9799 18.7767 10 18.4345C8.75947 18.0011 6.151 18.2846 5.28571 18.3956C5.13413 18.415 5 18.2971 5 18.1443Z" stroke="#22272F" stroke-width="2"/>
<path d="M12 4V18.6C12 19.4401 12 19.8601 11.8365 20.181C11.6927 20.4632 11.4632 20.6927 11.181 20.8365C10.8601 21 10.4401 21 9.6 21H4.4C3.55992 21 3.13988 21 2.81901 20.8365C2.53677 20.6927 2.3073 20.4632 2.16349 20.181C2 19.8601 2 19.4401 2 18.6V7.4C2 6.55992 2 6.13988 2.16349 5.81901C2.3073 5.53677 2.53677 5.3073 2.81901 5.16349C3.13988 5 3.55992 5 4.4 5H4.5" stroke="#22272F" stroke-width="2"/>
<path d="M12 4V18.6C12 19.4401 12 19.8601 12.1635 20.181C12.3073 20.4632 12.5368 20.6927 12.819 20.8365C13.1399 21 13.5599 21 14.4 21H19.6C20.4401 21 20.8601 21 21.181 20.8365C21.4632 20.6927 21.6927 20.4632 21.8365 20.181C22 19.8601 22 19.4401 22 18.6V7.4C22 6.55992 22 6.13988 21.8365 5.81901C21.6927 5.53677 21.4632 5.3073 21.181 5.16349C20.8601 5 20.4401 5 19.6 5H19.5" stroke="#22272F" stroke-width="2"/>
</svg>
