<svg width="24" height="24" viewBox="0 0 24 24" fill="none" xmlns="http://www.w3.org/2000/svg">
<path d="M4.5 18.7118V3.216C4.5 3.08454 4.5997 2.9759 4.73095 2.9686C5.6038 2.9201 8.71675 2.78467 10 3.23293C11.0027 3.58318 11.5586 3.90418 11.8169 4.07852C11.9244 4.15106 12.0756 4.15106 12.1831 4.07852C12.4414 3.90418 12.9973 3.58318 14 3.23293C15.2838 2.78448 18.3988 2.93306 19.2702 2.98522C19.401 2.99304 19.5 3.10148 19.5 3.23251V18.7281C19.5 18.8806 19.3656 18.9983 19.2143 18.9786C18.273 18.8562 15.2577 18.5128 14 18.9521C13.0201 19.2944 12.467 19.6367 12.2012 19.8329C12.0864 19.9176 11.9136 19.9176 11.7988 19.8329C11.533 19.6367 10.9799 19.2944 10 18.9521C8.74183 18.5126 5.72479 18.8441 4.78467 18.9624C4.63371 18.9814 4.5 18.8639 4.5 18.7118Z" fill="#22272F" fill-opacity="0.12" stroke="#22272F" stroke-width="1.5"/>
<path d="M12 4V18.6C12 19.4401 12 19.8601 11.8365 20.181C11.6927 20.4632 11.4632 20.6927 11.181 20.8365C10.8601 21 10.4401 21 9.6 21H4.4C3.55992 21 3.13988 21 2.81901 20.8365C2.53677 20.6927 2.3073 20.4632 2.16349 20.181C2 19.8601 2 19.4401 2 18.6V7.4C2 6.55992 2 6.13988 2.16349 5.81901C2.3073 5.53677 2.53677 5.3073 2.81901 5.16349C3.13988 5 3.55992 5 4.4 5H4.5" stroke="#22272F" stroke-width="1.5"/>
<path d="M12 4V18.6C12 19.4401 12 19.8601 12.1635 20.181C12.3073 20.4632 12.5368 20.6927 12.819 20.8365C13.1399 21 13.5599 21 14.4 21H19.6C20.4401 21 20.8601 21 21.181 20.8365C21.4632 20.6927 21.6927 20.4632 21.8365 20.181C22 19.8601 22 19.4401 22 18.6V7.4C22 6.55992 22 6.13988 21.8365 5.81901C21.6927 5.53677 21.4632 5.3073 21.181 5.16349C20.8601 5 20.4401 5 19.6 5H19.5" stroke="#22272F" stroke-width="1.5"/>
</svg>
