<svg width="24" height="24" viewBox="0 0 24 24" fill="none" xmlns="http://www.w3.org/2000/svg">
<path fill-rule="evenodd" clip-rule="evenodd" d="M12.5234 19.6198C12.5448 19.8525 12.5855 20.028 12.6635 20.181C12.8073 20.4632 13.0368 20.6927 13.319 20.8365C13.6399 21 14.0599 21 14.9 21H19.6C20.4401 21 20.8601 21 21.181 20.8365C21.4632 20.6927 21.6927 20.4632 21.8365 20.181C22 19.8601 22 19.4401 22 18.6V7.4C22 6.55992 22 6.13988 21.8365 5.81901C21.6927 5.53677 21.4632 5.3073 21.181 5.16349C20.8601 5 20.4401 5 19.6 5H19.5V18.728C19.5 18.8806 19.3656 18.9983 19.2143 18.9786C18.273 18.8562 15.2577 18.5127 14 18.9521C13.3153 19.1912 12.839 19.4304 12.5234 19.6198Z" fill="black" fill-opacity="0.32"/>
<path fill-rule="evenodd" clip-rule="evenodd" d="M4.5 4.99999V18.7117C4.5 18.8639 4.63371 18.9814 4.78467 18.9624C5.72479 18.8441 8.74183 18.5126 10 18.952C10.6847 19.1912 11.161 19.4304 11.4766 19.6197C11.4552 19.8525 11.4144 20.028 11.3365 20.181C11.1927 20.4632 10.9632 20.6927 10.681 20.8365C10.3601 21 9.94008 21 9.1 21L4.4 21C3.55992 21 3.13988 21 2.81901 20.8365C2.53677 20.6927 2.3073 20.4632 2.16349 20.181C2 19.8601 2 19.4401 2 18.6V7.39999C2 6.55991 2 6.13987 2.16349 5.819C2.3073 5.53676 2.53677 5.30729 2.81901 5.16348C3.13988 4.99999 3.55992 4.99999 4.4 4.99999L4.5 4.99999Z" fill="black" fill-opacity="0.32"/>
<path fill-rule="evenodd" clip-rule="evenodd" d="M4.5 3.216V18.7118C4.5 18.8639 4.63371 18.9814 4.78467 18.9624C5.72479 18.8441 8.74183 18.5126 10 18.9521C10.7019 19.1973 11.1848 19.4424 11.5 19.6339V3.88517C11.1848 3.70893 10.7019 3.4781 10 3.23293C8.71675 2.78467 5.6038 2.9201 4.73095 2.9686C4.5997 2.9759 4.5 3.08454 4.5 3.216ZM12.5 3.88517V19.6339C12.8152 19.4424 13.2981 19.1973 14 18.9521C15.2577 18.5128 18.273 18.8562 19.2143 18.9786C19.3656 18.9983 19.5 18.8806 19.5 18.7281V3.23251C19.5 3.10148 19.401 2.99304 19.2702 2.98522C18.3988 2.93306 15.2838 2.78448 14 3.23293C13.2981 3.4781 12.8152 3.70893 12.5 3.88517Z" fill="#22272F"/>
</svg>
