<svg width="24" height="24" viewBox="0 0 24 24" fill="none" xmlns="http://www.w3.org/2000/svg">
<path fill-rule="evenodd" clip-rule="evenodd" d="M12.0336 1.25H11.9664C10.5947 1.25 9.51929 1.24999 8.65494 1.32061C7.7748 1.39252 7.04769 1.54138 6.38955 1.87671C5.30762 2.42798 4.42798 3.30762 3.87671 4.38955C3.54138 5.04769 3.39252 5.77479 3.32061 6.65494C3.24999 7.51928 3.25 8.59471 3.25 9.96642V9.96644V18.2177C3.24999 19.1339 3.24998 19.8738 3.30274 20.4492C3.35567 21.0263 3.46971 21.5693 3.79569 22.0063C4.27129 22.6439 4.99967 23.0443 5.79285 23.1042C6.3365 23.1453 6.85605 22.9506 7.3717 22.6861C7.88571 22.4224 8.51044 22.0259 9.28399 21.535L10.6872 20.6445C11.3559 20.2201 11.541 20.1148 11.7197 20.0737C11.9041 20.0312 12.0959 20.0312 12.2803 20.0737C12.459 20.1148 12.6441 20.2201 13.3127 20.6444L13.3141 20.6453L14.716 21.535C15.4896 22.0259 16.1143 22.4224 16.6283 22.6861C17.144 22.9506 17.6635 23.1453 18.2072 23.1042C19.0003 23.0443 19.7287 22.6439 20.2043 22.0063C20.5303 21.5693 20.6443 21.0263 20.6973 20.4492C20.75 19.8739 20.75 19.134 20.75 18.2178V18.2177V9.96642V9.96637C20.75 8.59469 20.75 7.51927 20.6794 6.65494C20.6075 5.77479 20.4586 5.04768 20.1233 4.38956C19.572 3.30762 18.6924 2.42798 17.6104 1.87671C16.9523 1.54138 16.2252 1.39252 15.3451 1.32061C14.4807 1.24999 13.4053 1.25 12.0336 1.25Z" fill="black" fill-opacity="0.32"/>
<path d="M4 11V10C4 7.19974 4 5.79961 4.54497 4.73005C5.02433 3.78924 5.78924 3.02433 6.73005 2.54497C7.79961 2 9.19974 2 12 2V2C14.8003 2 16.2004 2 17.27 2.54497C18.2108 3.02433 18.9757 3.78924 19.455 4.73005C20 5.79961 20 7.19974 20 10V11" stroke="#22272F" stroke-width="1.5" stroke-linecap="round" stroke-linejoin="round"/>
</svg>
