<svg width="24" height="24" viewBox="0 0 24 24" fill="none" xmlns="http://www.w3.org/2000/svg">
<path d="M4 18.7326V3.23431C4 3.1025 4.10001 2.99366 4.23163 2.98654C5.17051 2.93576 8.70437 2.78024 10 3.23283C11.0027 3.58309 11.5586 3.90408 11.8169 4.07842C11.9244 4.15096 12.0756 4.15096 12.1831 4.07842C12.4415 3.90408 12.9973 3.58309 14 3.23283C15.2956 2.78024 18.8295 2.93575 19.7684 2.98653C19.9 2.99365 20 3.10249 20 3.23429V18.7326C20 18.8836 19.8686 19.0007 19.7187 18.9831C18.7109 18.865 15.2738 18.5071 14 18.952C13.0201 19.2943 12.467 19.6366 12.2012 19.8328C12.0864 19.9175 11.9136 19.9175 11.7988 19.8328C11.533 19.6366 10.9799 19.2943 10 18.952C8.72623 18.5071 5.28913 18.865 4.28134 18.9831C4.1314 19.0007 4 18.8836 4 18.7326Z" stroke="#22272F"/>
<path d="M12 4V18.6C12 19.4401 12 19.8601 11.8365 20.181C11.6927 20.4632 11.4632 20.6927 11.181 20.8365C10.8601 21 10.4401 21 9.6 21H4.4C3.55992 21 3.13988 21 2.81901 20.8365C2.53677 20.6927 2.3073 20.4632 2.16349 20.181C2 19.8601 2 19.4401 2 18.6V7C2 6.53501 2 6.30252 2.05111 6.11177C2.18981 5.59413 2.59413 5.18981 3.11177 5.05111C3.30252 5 3.53501 5 4 5V5" stroke="#22272F"/>
<path d="M12 4V18.6C12 19.4401 12 19.8601 12.1635 20.181C12.3073 20.4632 12.5368 20.6927 12.819 20.8365C13.1399 21 13.5599 21 14.4 21H19.6C20.4401 21 20.8601 21 21.181 20.8365C21.4632 20.6927 21.6927 20.4632 21.8365 20.181C22 19.8601 22 19.4401 22 18.6V7C22 6.53501 22 6.30252 21.9489 6.11177C21.8102 5.59413 21.4059 5.18981 20.8882 5.05111C20.6975 5 20.465 5 20 5V5" stroke="#22272F"/>
</svg>
