<svg width="24" height="24" viewBox="0 0 24 24" fill="none" xmlns="http://www.w3.org/2000/svg">
<path d="M13.7146 20.0112L15.0854 20.8811C16.6876 21.8979 17.4888 22.4063 18.1507 22.3563C18.7275 22.3128 19.2572 22.0215 19.6031 21.5578C20 21.0258 20 20.0769 20 18.1792V13V10C20 7.19974 20 5.79961 19.455 4.73005C18.9757 3.78924 18.2108 3.02433 17.27 2.54497C16.2004 2 14.8003 2 12 2C9.19974 2 7.79961 2 6.73005 2.54497C5.78924 3.02433 5.02433 3.78924 4.54497 4.73005C4 5.79961 4 7.19974 4 10V13V18.1792C4 20.0769 4 21.0258 4.39687 21.5578C4.74275 22.0215 5.27248 22.3128 5.84934 22.3563C6.51122 22.4063 7.31236 21.8979 8.91464 20.8811L10.2854 20.0112L10.2854 20.0112C10.9069 19.6168 11.2176 19.4196 11.5515 19.3428C11.8466 19.2748 12.1534 19.2748 12.4485 19.3428C12.7824 19.4196 13.0931 19.6168 13.7146 20.0112L13.7146 20.0112Z" stroke="#22272F" stroke-width="2" stroke-linejoin="round"/>
</svg>
