<svg width="24" height="24" viewBox="0 0 24 24" fill="none" xmlns="http://www.w3.org/2000/svg">
<path d="M15 2H9C6.23858 2 4 4.23858 4 7V13V20.362C4 21.9391 5.74009 22.8957 7.07165 22.0507L10.9284 19.6032C11.5825 19.188 12.4175 19.188 13.0716 19.6032L16.9284 22.0507C18.2599 22.8957 20 21.9391 20 20.362V13V7C20 4.23858 17.7614 2 15 2Z" stroke="#22272F" stroke-width="1.5" stroke-linejoin="round"/>
<path d="M4 8V8C4 7.07099 4 6.60649 4.06156 6.21783C4.40042 4.07837 6.07837 2.40042 8.21783 2.06156C8.60649 2 9.07099 2 10 2H14C14.929 2 15.3935 2 15.7822 2.06156C17.9216 2.40042 19.5996 4.07837 19.9384 6.21783C20 6.60649 20 7.07099 20 8V8" stroke="#00AB3F" stroke-width="1.5" stroke-linecap="round" stroke-linejoin="round"/>
</svg>
