<svg width="24" height="24" viewBox="0 0 24 24" fill="none" xmlns="http://www.w3.org/2000/svg">
<path fill-rule="evenodd" clip-rule="evenodd" d="M2.65396 5.27606C2 6.55953 2 8.23969 2 11.6V12.4C2 15.7603 2 17.4405 2.65396 18.7239C3.2292 19.8529 4.14708 20.7708 5.27606 21.346C6.55953 22 8.23969 22 11.6 22H12.4C15.7603 22 17.4405 22 18.7239 21.346C19.8529 20.7708 20.7708 19.8529 21.346 18.7239C22 17.4405 22 15.7603 22 12.4V11.6C22 8.23969 22 6.55953 21.346 5.27606C20.7708 4.14708 19.8529 3.2292 18.7239 2.65396C17.4405 2 15.7603 2 12.4 2H11.6C8.23969 2 6.55953 2 5.27606 2.65396C4.14708 3.2292 3.2292 4.14708 2.65396 5.27606ZM12.5 6.75C12.5 6.33579 12.1642 6 11.75 6C11.3358 6 11 6.33579 11 6.75V16H8.5L8.5 10.75C8.5 10.3358 8.16421 10 7.75 10C7.33579 10 7 10.3358 7 10.75L7 16H5.75C5.33579 16 5 16.3358 5 16.75C5 17.1642 5.33579 17.5 5.75 17.5H17.75C18.1642 17.5 18.5 17.1642 18.5 16.75C18.5 16.3358 18.1642 16 17.75 16H16.5L16.5 8.75C16.5 8.33579 16.1642 8 15.75 8C15.3358 8 15 8.33579 15 8.75L15 16H12.5V6.75Z" fill="#22272F"/>
</svg>
