<svg width="24" height="24" viewBox="0 0 24 24" fill="none" xmlns="http://www.w3.org/2000/svg">
<rect x="2" y="2" width="20" height="20" rx="6" fill="black" fill-opacity="0.32"/>
<path fill-rule="evenodd" clip-rule="evenodd" d="M11.75 6C12.1642 6 12.5 6.33579 12.5 6.75L12.5 16H15L15 8.75C15 8.33579 15.3358 8 15.75 8C16.1642 8 16.5 8.33579 16.5 8.75L16.5 16H17.75C18.1642 16 18.5 16.3358 18.5 16.75C18.5 17.1642 18.1642 17.5 17.75 17.5H5.75C5.33579 17.5 5 17.1642 5 16.75C5 16.3358 5.33579 16 5.75 16H7L7 10.75C7 10.3358 7.33579 10 7.75 10C8.16421 10 8.5 10.3358 8.5 10.75L8.5 16H11L11 6.75C11 6.33579 11.3358 6 11.75 6Z" fill="#22272F"/>
</svg>
