<svg width="24" height="24" viewBox="0 0 24 24" fill="none" xmlns="http://www.w3.org/2000/svg">
<path fill-rule="evenodd" clip-rule="evenodd" d="M7.3245 5.07636C5.99295 5.38276 5 6.57542 5 8V18C5 19.6569 6.34315 21 8 21H16C17.6569 21 19 19.6569 19 18V8C19 6.57542 18.0071 5.38276 16.6755 5.07636C16.4209 6.03976 15.5434 6.75 14.5 6.75H9.5C8.45659 6.75 7.57906 6.03976 7.3245 5.07636ZM8.75 4.5C8.75 4.08579 9.08579 3.75 9.5 3.75H14.5C14.9142 3.75 15.25 4.08579 15.25 4.5C15.25 4.91421 14.9142 5.25 14.5 5.25H9.5C9.08579 5.25 8.75 4.91421 8.75 4.5Z" fill="black" fill-opacity="0.32"/>
<path d="M9 14L11 16L15 11" stroke="#22272F" stroke-width="1.5" stroke-linecap="round" stroke-linejoin="round"/>
</svg>
