<svg width="24" height="24" viewBox="0 0 24 24" fill="none" xmlns="http://www.w3.org/2000/svg">
<path fill-rule="evenodd" clip-rule="evenodd" d="M7.3245 5.07636C5.99295 5.38276 5 6.57542 5 8V18C5 19.6569 6.34315 21 8 21H16C17.6569 21 19 19.6569 19 18V8C19 6.57542 18.0071 5.38276 16.6755 5.07636C16.4209 6.03976 15.5434 6.75 14.5 6.75H9.5C8.45659 6.75 7.57906 6.03976 7.3245 5.07636ZM8.75 4.5C8.75 4.08579 9.08579 3.75 9.5 3.75H14.5C14.9142 3.75 15.25 4.08579 15.25 4.5C15.25 4.91421 14.9142 5.25 14.5 5.25H9.5C9.08579 5.25 8.75 4.91421 8.75 4.5ZM15.4685 10.4143C15.792 10.6731 15.8444 11.1451 15.5857 11.4685L11.5857 16.4685C11.4524 16.6351 11.2545 16.7371 11.0415 16.7489C10.8285 16.7606 10.6205 16.6812 10.4697 16.5303L8.46967 14.5303C8.17678 14.2374 8.17678 13.7626 8.46967 13.4697C8.76256 13.1768 9.23744 13.1768 9.53033 13.4697L10.9378 14.8772L14.4143 10.5315C14.6731 10.208 15.1451 10.1556 15.4685 10.4143Z" fill="#22272F"/>
</svg>
