<svg width="24" height="24" viewBox="0 0 24 24" fill="none" xmlns="http://www.w3.org/2000/svg">
<path d="M8 6C8 5.06812 8 4.60218 8.15224 4.23463C8.35523 3.74458 8.74458 3.35523 9.23463 3.15224C9.60218 3 10.0681 3 11 3H13C13.9319 3 14.3978 3 14.7654 3.15224C15.2554 3.35523 15.6448 3.74458 15.8478 4.23463C16 4.60218 16 5.06812 16 6V6H8V6Z" stroke="#22272F" stroke-width="2"/>
<path d="M5.24472 6.80786L6.19577 7.11687L5.24472 6.80786ZM5.58817 6V5H4.98814L4.7058 5.52944L5.58817 6ZM5.24472 17.5451L4.29366 17.8541L4.29366 17.8541L5.24472 17.5451ZM8.45492 20.7553L8.1459 21.7063L8.1459 21.7063L8.45492 20.7553ZM15.5451 20.7553L15.2361 19.8042L15.2361 19.8042L15.5451 20.7553ZM18.7553 17.5451L17.8042 17.2361L17.8042 17.2361L18.7553 17.5451ZM18.7553 6.80786L19.7063 6.49884L19.7063 6.49884L18.7553 6.80786ZM18.4118 6L19.2942 5.52944L19.0119 5H18.4118V6ZM6.19577 7.11687C6.26893 6.89171 6.36115 6.67568 6.47053 6.47056L4.7058 5.52944C4.54161 5.83732 4.4033 6.16142 4.29366 6.49884L6.19577 7.11687ZM6 10.3529C6 8.41383 6.01234 7.68143 6.19577 7.11687L4.29366 6.49884C3.98766 7.44061 4 8.56949 4 10.3529H6ZM6 14V10.3529H4V14H6ZM6.19577 17.2361C6.01234 16.6715 6 15.9391 6 14H4C4 15.7835 3.98766 16.9123 4.29366 17.8541L6.19577 17.2361ZM8.76393 19.8042C7.54618 19.4086 6.59145 18.4538 6.19577 17.2361L4.29366 17.8541C4.88717 19.6807 6.31927 21.1128 8.1459 21.7063L8.76393 19.8042ZM12 20C10.0609 20 9.32849 19.9877 8.76393 19.8042L8.1459 21.7063C9.08766 22.0123 10.2166 22 12 22V20ZM15.2361 19.8042C14.6715 19.9877 13.9391 20 12 20V22C13.7834 22 14.9123 22.0123 15.8541 21.7063L15.2361 19.8042ZM17.8042 17.2361C17.4086 18.4538 16.4538 19.4086 15.2361 19.8042L15.8541 21.7063C17.6807 21.1128 19.1128 19.6807 19.7063 17.8541L17.8042 17.2361ZM18 14C18 15.9391 17.9877 16.6715 17.8042 17.2361L19.7063 17.8541C20.0123 16.9123 20 15.7834 20 14H18ZM18 10.3529V14H20V10.3529H18ZM17.8042 7.11687C17.9877 7.68143 18 8.41383 18 10.3529H20C20 8.56949 20.0123 7.44061 19.7063 6.49884L17.8042 7.11687ZM17.5295 6.47056C17.6389 6.67568 17.7311 6.89171 17.8042 7.11687L19.7063 6.49884C19.5967 6.16142 19.4584 5.83732 19.2942 5.52944L17.5295 6.47056ZM18.4118 5H5.58817V7H18.4118V5Z" fill="#22272F"/>
<path d="M4 6H20" stroke="#22272F" stroke-width="2" stroke-linecap="round"/>
<path d="M10 10V15" stroke="#22272F" stroke-width="2" stroke-linecap="round" stroke-linejoin="round"/>
<path d="M14 10V17" stroke="#22272F" stroke-width="2" stroke-linecap="round" stroke-linejoin="round"/>
</svg>
