<svg width="24" height="24" viewBox="0 0 24 24" fill="none" xmlns="http://www.w3.org/2000/svg">
<path d="M16 4.5V4.5C16 3.67157 15.3284 3 14.5 3H9.5C8.67157 3 8 3.67157 8 4.5V4.5" stroke="#22272F" stroke-width="1.5"/>
<path fill-rule="evenodd" clip-rule="evenodd" d="M5 5.25C4.58579 5.25 4.25 5.58579 4.25 6C4.25 6.41421 4.58579 6.75 5 6.75H5.26391C5.2574 6.76923 5.251 6.78852 5.24472 6.80786C5 7.56102 5 8.49166 5 10.3529V14C5 15.8613 5 16.7919 5.24472 17.5451C5.73931 19.0673 6.93273 20.2607 8.45492 20.7553C9.20808 21 10.1387 21 12 21C13.8613 21 14.7919 21 15.5451 20.7553C17.0673 20.2607 18.2607 19.0673 18.7553 17.5451C19 16.7919 19 15.8613 19 14V10.3529C19 8.49166 19 7.56102 18.7553 6.80786C18.749 6.78852 18.7426 6.76923 18.7361 6.75H19C19.4142 6.75 19.75 6.41421 19.75 6C19.75 5.58579 19.4142 5.25 19 5.25H5ZM10.75 10C10.75 9.58579 10.4142 9.25 10 9.25C9.58579 9.25 9.25 9.58579 9.25 10V15C9.25 15.4142 9.58579 15.75 10 15.75C10.4142 15.75 10.75 15.4142 10.75 15V10ZM14.75 10C14.75 9.58579 14.4142 9.25 14 9.25C13.5858 9.25 13.25 9.58579 13.25 10V17C13.25 17.4142 13.5858 17.75 14 17.75C14.4142 17.75 14.75 17.4142 14.75 17V10Z" fill="black" fill-opacity="0.32"/>
</svg>
