<svg width="24" height="24" viewBox="0 0 24 24" fill="none" xmlns="http://www.w3.org/2000/svg">
<path d="M8 6C8 5.06812 8 4.60218 8.15224 4.23463C8.35523 3.74458 8.74458 3.35523 9.23463 3.15224C9.60218 3 10.0681 3 11 3H13C13.9319 3 14.3978 3 14.7654 3.15224C15.2554 3.35523 15.6448 3.74458 15.8478 4.23463C16 4.60218 16 5.06812 16 6V6H8V6Z" stroke="#22272F" stroke-width="1.5"/>
<path d="M5 6L19 6" stroke="#22272F" stroke-width="1.5" stroke-linecap="round"/>
<path fill-rule="evenodd" clip-rule="evenodd" d="M5.58817 6C5.45138 6.2565 5.33611 6.52657 5.24472 6.80786C5 7.56102 5 8.49166 5 10.3529V14C5 15.8613 5 16.7919 5.24472 17.5451C5.73931 19.0673 6.93273 20.2607 8.45492 20.7553C9.20808 21 10.1387 21 12 21C13.8613 21 14.7919 21 15.5451 20.7553C17.0673 20.2607 18.2607 19.0673 18.7553 17.5451C19 16.7919 19 15.8613 19 14V10.3529C19 8.49166 19 7.56102 18.7553 6.80786C18.6639 6.52657 18.5486 6.2565 18.4118 6H5.58817ZM10 9.25C10.4142 9.25 10.75 9.58579 10.75 10V15C10.75 15.4142 10.4142 15.75 10 15.75C9.58579 15.75 9.25 15.4142 9.25 15V10C9.25 9.58579 9.58579 9.25 10 9.25ZM14 9.25C14.4142 9.25 14.75 9.58579 14.75 10V17C14.75 17.4142 14.4142 17.75 14 17.75C13.5858 17.75 13.25 17.4142 13.25 17V10C13.25 9.58579 13.5858 9.25 14 9.25Z" fill="#22272F"/>
</svg>
