<svg width="24" height="24" viewBox="0 0 24 24" fill="none" xmlns="http://www.w3.org/2000/svg">
<path fill-rule="evenodd" clip-rule="evenodd" d="M2.65396 5.27606C2 6.55953 2 8.23969 2 11.6V12.4C2 15.7603 2 17.4405 2.65396 18.7239C3.2292 19.8529 4.14708 20.7708 5.27606 21.346C6.55953 22 8.23969 22 11.6 22H12.4C15.7603 22 17.4405 22 18.7239 21.346C19.8529 20.7708 20.7708 19.8529 21.346 18.7239C22 17.4405 22 15.7603 22 12.4V11.6C22 8.23969 22 6.55953 21.346 5.27606C20.7708 4.14708 19.8529 3.2292 18.7239 2.65396C17.4405 2 15.7603 2 12.4 2H11.6C8.23969 2 6.55953 2 5.27606 2.65396C4.14708 3.2292 3.2292 4.14708 2.65396 5.27606ZM12.75 6C12.75 5.58579 12.4142 5.25 12 5.25C11.5858 5.25 11.25 5.58579 11.25 6V12.1893L10.5303 11.4697C10.2374 11.1768 9.76256 11.1768 9.46967 11.4697C9.17678 11.7626 9.17678 12.2374 9.46967 12.5303L11.4697 14.5303C11.7626 14.8232 12.2374 14.8232 12.5303 14.5303L14.5303 12.5303C14.8232 12.2374 14.8232 11.7626 14.5303 11.4697C14.2374 11.1768 13.7626 11.1768 13.4697 11.4697L12.75 12.1893V6ZM6.75 14C6.75 13.5858 6.41421 13.25 6 13.25C5.58579 13.25 5.25 13.5858 5.25 14V14.86L5.25 14.8805V14.8805C5.24998 14.9904 5.24997 15.0751 5.25415 15.1511C5.33119 16.551 6.44901 17.6688 7.84889 17.7458C7.9249 17.75 8.00953 17.75 8.11941 17.75H8.11946L8.14 17.75H15.86L15.8805 17.75H15.8806C15.9905 17.75 16.0751 17.75 16.1511 17.7458C17.551 17.6688 18.6688 16.551 18.7458 15.1511C18.75 15.0751 18.75 14.9905 18.75 14.8807V14.8805L18.75 14.86V14C18.75 13.5858 18.4142 13.25 18 13.25C17.5858 13.25 17.25 13.5858 17.25 14V14.86C17.25 15 17.2497 15.0396 17.2481 15.0687L17.997 15.1099L17.2481 15.0687C17.2131 15.705 16.705 16.2131 16.0687 16.2481C16.0396 16.2497 16 16.25 15.86 16.25H8.14C8.00002 16.25 7.96044 16.2497 7.93131 16.2481C7.295 16.2131 6.78691 15.705 6.75189 15.0687C6.75029 15.0396 6.75 15 6.75 14.86V14Z" fill="#22272F"/>
</svg>
