<svg width="24" height="24" viewBox="0 0 24 24" fill="none" xmlns="http://www.w3.org/2000/svg">
<rect x="2" y="2" width="20" height="20" rx="6" fill="black" fill-opacity="0.32"/>
<path d="M12.75 7C12.75 6.58579 12.4142 6.25 12 6.25C11.5858 6.25 11.25 6.58579 11.25 7H12.75ZM12 15L11.4697 15.5303C11.7626 15.8232 12.2374 15.8232 12.5303 15.5303L12 15ZM14.5303 13.5303C14.8232 13.2374 14.8232 12.7626 14.5303 12.4697C14.2374 12.1768 13.7626 12.1768 13.4697 12.4697L14.5303 13.5303ZM10.5303 12.4697C10.2374 12.1768 9.76256 12.1768 9.46967 12.4697C9.17678 12.7626 9.17678 13.2374 9.46967 13.5303L10.5303 12.4697ZM18.75 15C18.75 14.5858 18.4142 14.25 18 14.25C17.5858 14.25 17.25 14.5858 17.25 15H18.75ZM6.75 15C6.75 14.5858 6.41421 14.25 6 14.25C5.58579 14.25 5.25 14.5858 5.25 15H6.75ZM7.8901 17.997L7.84889 18.7458L7.84889 18.7458L7.8901 17.997ZM6.00302 16.1099L6.75189 16.0687L6.00302 16.1099ZM16.1099 17.997L16.1511 18.7458L16.1511 18.7458L16.1099 17.997ZM17.997 16.1099L17.2481 16.0687L17.2481 16.0687L17.997 16.1099ZM11.25 7V15H12.75V7H11.25ZM13.4697 12.4697L11.4697 14.4697L12.5303 15.5303L14.5303 13.5303L13.4697 12.4697ZM12.5303 14.4697L10.5303 12.4697L9.46967 13.5303L11.4697 15.5303L12.5303 14.4697ZM15.86 17.25H8.14V18.75H15.86V17.25ZM17.25 15V15.86H18.75V15H17.25ZM6.75 15.86V15H5.25V15.86H6.75ZM8.14 17.25C8.00002 17.25 7.96044 17.2497 7.93131 17.2481L7.84889 18.7458C7.92958 18.7503 8.01999 18.75 8.14 18.75V17.25ZM5.25 15.86C5.25 15.98 5.24971 16.0704 5.25415 16.1511L6.75189 16.0687C6.75029 16.0396 6.75 16 6.75 15.86H5.25ZM7.93131 17.2481C7.295 17.2131 6.78691 16.705 6.75189 16.0687L5.25415 16.1511C5.33119 17.551 6.44901 18.6688 7.84889 18.7458L7.93131 17.2481ZM15.86 18.75C15.98 18.75 16.0704 18.7503 16.1511 18.7458L16.0687 17.2481C16.0396 17.2497 16 17.25 15.86 17.25V18.75ZM17.25 15.86C17.25 16 17.2497 16.0396 17.2481 16.0687L18.7458 16.1511C18.7503 16.0704 18.75 15.98 18.75 15.86H17.25ZM16.1511 18.7458C17.551 18.6688 18.6688 17.551 18.7458 16.1511L17.2481 16.0687C17.2131 16.705 16.705 17.2131 16.0687 17.2481L16.1511 18.7458Z" fill="#22272F"/>
</svg>
