<svg width="24" height="24" viewBox="0 0 24 24" fill="none" xmlns="http://www.w3.org/2000/svg">
<path d="M13 8L17.7929 3.20711C18.1834 2.81658 18.8166 2.81658 19.2071 3.20711L20 4L20.7929 4.79289C21.1834 5.18342 21.1834 5.81658 20.7929 6.20711L16 11M3 21V20.0711C3 18.745 3.52678 17.4732 4.46447 16.5355L9.79289 11.2071C10.1834 10.8166 10.8166 10.8166 11.2071 11.2071L12.7929 12.7929C13.1834 13.1834 13.1834 13.8166 12.7929 14.2071L7.46447 19.5355C6.52678 20.4732 5.25501 21 3.92893 21H3Z" stroke="#22272F" stroke-width="1.5" stroke-linecap="round" stroke-linejoin="round"/>
<path d="M5 5L19 19" stroke="#00AB3F" stroke-width="1.5" stroke-linecap="round" stroke-linejoin="round"/>
</svg>
