<svg width="24" height="24" viewBox="0 0 24 24" fill="none" xmlns="http://www.w3.org/2000/svg">
<path fill-rule="evenodd" clip-rule="evenodd" d="M2.65396 5.27606C2 6.55953 2 8.23969 2 11.6V12.4C2 15.7603 2 17.4405 2.65396 18.7239C3.2292 19.8529 4.14708 20.7708 5.27606 21.346C6.55953 22 8.23969 22 11.6 22H12.4C15.7603 22 17.4405 22 18.7239 21.346C19.8529 20.7708 20.7708 19.8529 21.346 18.7239C22 17.4405 22 15.7603 22 12.4V11.6C22 8.23969 22 6.55953 21.346 5.27606C20.7708 4.14708 19.8529 3.2292 18.7239 2.65396C17.4405 2 15.7603 2 12.4 2H11.6C8.23969 2 6.55953 2 5.27606 2.65396C4.14708 3.2292 3.2292 4.14708 2.65396 5.27606ZM16.8124 6.70711L17.0526 6.94737L17.2929 7.18763C17.6834 7.57815 17.6834 8.21132 17.2929 8.60184L14.8421 11.0526L9.23452 16.6602C8.37667 17.5181 7.21318 18 6 18C6 16.7868 6.48193 15.6233 7.33978 14.7655L12.9474 9.1579L15.3982 6.70711C15.7887 6.31658 16.4218 6.31658 16.8124 6.70711Z" fill="#22272F"/>
</svg>
