<svg width="24" height="24" viewBox="0 0 24 24" fill="none" xmlns="http://www.w3.org/2000/svg">
<path fill-rule="evenodd" clip-rule="evenodd" d="M2.65396 5.27606C2 6.55953 2 8.23969 2 11.6V12.4C2 15.7603 2 17.4405 2.65396 18.7239C3.2292 19.8529 4.14708 20.7708 5.27606 21.346C6.55953 22 8.23969 22 11.6 22H12.4C15.7603 22 17.4405 22 18.7239 21.346C19.8529 20.7708 20.7708 19.8529 21.346 18.7239C22 17.4405 22 15.7603 22 12.4V11.6C22 8.23969 22 6.55953 21.346 5.27606C20.7708 4.14708 19.8529 3.2292 18.7239 2.65396C17.4405 2 15.7603 2 12.4 2H11.6C8.23969 2 6.55953 2 5.27606 2.65396C4.14708 3.2292 3.2292 4.14708 2.65396 5.27606ZM17.027 6.97297L16.7066 6.6694C16.3133 6.29681 15.6948 6.30517 15.3117 6.68825L12.8536 9.14644C12.6583 9.3417 12.6583 9.65829 12.8536 9.85355L14.1464 11.1464C14.3417 11.3417 14.6583 11.3417 14.8536 11.1464L17.3117 8.68825C17.6948 8.30517 17.7032 7.68669 17.3306 7.2934L17.027 6.97297ZM9.41421 16.5858L12.4697 13.5303L15.4697 16.5303C15.7626 16.8232 16.2374 16.8232 16.5303 16.5303C16.8232 16.2374 16.8232 15.7626 16.5303 15.4697L8.53033 7.46967C8.23744 7.17678 7.76256 7.17678 7.46967 7.46967C7.17678 7.76256 7.17678 8.23744 7.46967 8.53033L10.4697 11.5303L7.41421 14.5858C6.50871 15.4913 6 16.7194 6 18C7.28058 18 8.50871 17.4913 9.41421 16.5858Z" fill="#22272F"/>
</svg>
