<svg width="24" height="24" viewBox="0 0 24 24" fill="none" xmlns="http://www.w3.org/2000/svg">
<rect x="2" y="2" width="20" height="20" rx="6" fill="black" fill-opacity="0.32"/>
<path fill-rule="evenodd" clip-rule="evenodd" d="M16.7066 6.66931L17.027 6.97288L17.3306 7.29331C17.7032 7.6866 17.6948 8.30507 17.3117 8.68816L14.8536 11.1464C14.6583 11.3416 14.3417 11.3416 14.1464 11.1464L12.8536 9.85346C12.6583 9.6582 12.6583 9.34161 12.8536 9.14635L15.3117 6.68816C15.6948 6.30507 16.3133 6.29672 16.7066 6.66931ZM12.4697 13.5302L9.41421 16.5857C8.50871 17.4912 7.28058 17.9999 6 17.9999C6 16.7193 6.50871 15.4912 7.41421 14.5857L10.4697 11.5302L7.46967 8.53024C7.17678 8.23735 7.17678 7.76247 7.46967 7.46958C7.76256 7.17669 8.23744 7.17669 8.53033 7.46958L16.5303 15.4696C16.8232 15.7625 16.8232 16.2373 16.5303 16.5302C16.2374 16.8231 15.7626 16.8231 15.4697 16.5302L12.4697 13.5302Z" fill="#22272F"/>
</svg>
