<svg width="24" height="24" viewBox="0 0 24 24" fill="none" xmlns="http://www.w3.org/2000/svg">
<path fill-rule="evenodd" clip-rule="evenodd" d="M11.7025 4C10.9073 4 10.2503 4.62053 10.2049 5.41442V5.41442C10.1748 5.94156 9.81728 6.38437 9.34398 6.6184C9.13015 6.72414 8.92352 6.84225 8.72504 6.97179C8.28204 7.26091 7.71785 7.34303 7.24803 7.0999V7.0999C6.54181 6.73443 5.67311 6.98359 5.26794 7.66781L4.96473 8.17987C4.55956 8.8641 4.75875 9.7456 5.41875 10.1891V10.1891C5.85724 10.4838 6.05667 11.0172 6.01707 11.544C6.00576 11.6945 6.00001 11.8466 6.00001 12C6.00001 12.1534 6.00576 12.3055 6.01707 12.456C6.05667 12.9828 5.85724 13.5162 5.41875 13.8109V13.8109C4.75875 14.2544 4.55956 15.1359 4.96473 15.8201L5.26794 16.3322C5.67311 17.0164 6.54181 17.2656 7.24803 16.9001V16.9001C7.71785 16.657 8.28204 16.7391 8.72504 17.0282C8.92352 17.1578 9.13015 17.2759 9.34399 17.3816C9.81728 17.6156 10.1748 18.0584 10.2049 18.5856V18.5856C10.2503 19.3795 10.9073 20 11.7025 20H12.2976C13.0927 20 13.7498 19.3795 13.7951 18.5856V18.5856C13.8252 18.0584 14.1827 17.6156 14.656 17.3816C14.8699 17.2759 15.0765 17.1578 15.275 17.0282C15.718 16.7391 16.2822 16.657 16.752 16.9001V16.9001C17.4582 17.2656 18.3269 17.0164 18.7321 16.3322L19.0353 15.8201C19.4404 15.1359 19.2413 14.2544 18.5813 13.8109V13.8109C18.1428 13.5162 17.9433 12.9828 17.9829 12.456C17.9942 12.3055 18 12.1534 18 12C18 11.8466 17.9942 11.6945 17.9829 11.544C17.9433 11.0172 18.1428 10.4838 18.5813 10.1891V10.1891C19.2413 9.7456 19.4404 8.8641 19.0353 8.17987L18.7321 7.66781C18.3269 6.98359 17.4582 6.73443 16.752 7.0999V7.0999C16.2822 7.34303 15.718 7.26091 15.275 6.97179C15.0765 6.84225 14.8699 6.72414 14.656 6.6184C14.1827 6.38437 13.8252 5.94157 13.7951 5.41443V5.41443C13.7498 4.62054 13.0927 4 12.2976 4H11.7025ZM12 14C13.1046 14 14 13.1046 14 12C14 10.8954 13.1046 10 12 10C10.8954 10 10 10.8954 10 12C10 13.1046 10.8954 14 12 14Z" fill="black" fill-opacity="0.32"/>
<circle cx="12" cy="12" r="2" fill="#22272F"/>
</svg>
