<svg width="24" height="24" viewBox="0 0 24 24" fill="none" xmlns="http://www.w3.org/2000/svg">
<path d="M5.26794 7.66781L5.69817 7.92257L5.26794 7.66781ZM4.96473 8.17987L5.39495 8.43463L5.39495 8.43463L4.96473 8.17987ZM4.96473 15.8201L4.5345 16.0749L4.5345 16.0749L4.96473 15.8201ZM5.26794 16.3322L4.83771 16.587L4.83771 16.587L5.26794 16.3322ZM18.7321 16.3322L18.3018 16.0774L18.3018 16.0774L18.7321 16.3322ZM19.0353 15.8201L19.4655 16.0749L19.4655 16.0749L19.0353 15.8201ZM19.0353 8.17987L19.4655 7.92511L19.4655 7.92511L19.0353 8.17987ZM18.7321 7.66781L18.3018 7.92257L18.3018 7.92257L18.7321 7.66781ZM17.9829 11.544L17.4843 11.5815L17.9829 11.544ZM15.275 17.0282L15.5482 17.4469L15.275 17.0282ZM17.9829 12.456L18.4815 12.4935L17.9829 12.456ZM9.34399 17.3816L9.12236 17.8298L9.34399 17.3816ZM8.72504 17.0282L8.99831 16.6095L8.72504 17.0282ZM14.656 17.3816L14.4344 16.9334L14.656 17.3816ZM6.01707 11.544L5.51848 11.5065L6.01707 11.544ZM9.34398 6.6184L9.12236 6.1702L9.34398 6.6184ZM10.7041 5.44295C10.7343 4.91369 11.1723 4.5 11.7025 4.5V3.5C10.6422 3.5 9.7662 4.32738 9.70571 5.3859L10.7041 5.44295ZM8.99831 7.3905C9.18028 7.27174 9.36967 7.16349 9.56561 7.0666L9.12236 6.1702C8.89063 6.28479 8.66677 6.41275 8.45177 6.55307L8.99831 7.3905ZM5.69817 7.92257C5.96828 7.46642 6.54742 7.30032 7.01823 7.54396L7.47783 6.65584C6.5362 6.16855 5.37793 6.50075 4.83771 7.41305L5.69817 7.92257ZM5.39495 8.43463L5.69817 7.92257L4.83771 7.41305L4.5345 7.92511L5.39495 8.43463ZM5.69764 9.77414C5.25764 9.47845 5.12485 8.89078 5.39495 8.43463L4.5345 7.92511C3.99428 8.83741 4.25986 10.0127 5.13986 10.6041L5.69764 9.77414ZM6.50001 12C6.50001 11.8591 6.50529 11.7195 6.51567 11.5815L5.51848 11.5065C5.50623 11.6695 5.50001 11.8341 5.50001 12H6.50001ZM6.51567 12.4185C6.50529 12.2805 6.50001 12.1409 6.50001 12H5.50001C5.50001 12.1659 5.50623 12.3305 5.51848 12.4935L6.51567 12.4185ZM5.39495 15.5654C5.12485 15.1092 5.25764 14.5215 5.69763 14.2259L5.13986 13.3959C4.25986 13.9873 3.99428 15.1626 4.5345 16.0749L5.39495 15.5654ZM5.69817 16.0774L5.39495 15.5654L4.5345 16.0749L4.83771 16.587L5.69817 16.0774ZM7.01823 16.456C6.54742 16.6997 5.96828 16.5336 5.69817 16.0774L4.83771 16.587C5.37793 17.4992 6.5362 17.8315 7.47783 17.3442L7.01823 16.456ZM9.56561 16.9334C9.36967 16.8365 9.18028 16.7283 8.99831 16.6095L8.45177 17.4469C8.66677 17.5872 8.89064 17.7152 9.12236 17.8298L9.56561 16.9334ZM11.7025 19.5C11.1723 19.5 10.7343 19.0863 10.7041 18.557L9.70571 18.6141C9.7662 19.6726 10.6422 20.5 11.7025 20.5V19.5ZM12.2976 19.5H11.7025V20.5H12.2976V19.5ZM13.2959 18.5571C13.2657 19.0863 12.8277 19.5 12.2976 19.5V20.5C13.3578 20.5 14.2338 19.6726 14.2943 18.6141L13.2959 18.5571ZM15.0017 16.6095C14.8197 16.7283 14.6303 16.8365 14.4344 16.9334L14.8777 17.8298C15.1094 17.7152 15.3332 17.5872 15.5482 17.4469L15.0017 16.6095ZM18.3018 16.0774C18.0317 16.5336 17.4526 16.6997 16.9818 16.456L16.5222 17.3442C17.4638 17.8315 18.6221 17.4992 19.1623 16.587L18.3018 16.0774ZM18.6051 15.5654L18.3018 16.0774L19.1623 16.587L19.4655 16.0749L18.6051 15.5654ZM18.3024 14.2259C18.7424 14.5215 18.8752 15.1092 18.6051 15.5654L19.4655 16.0749C20.0057 15.1626 19.7401 13.9873 18.8602 13.3959L18.3024 14.2259ZM17.5 12C17.5 12.1409 17.4947 12.2805 17.4843 12.4185L18.4815 12.4935C18.4938 12.3305 18.5 12.1659 18.5 12H17.5ZM17.4843 11.5815C17.4947 11.7195 17.5 11.8591 17.5 12H18.5C18.5 11.8341 18.4938 11.6695 18.4815 11.5065L17.4843 11.5815ZM18.6051 8.43463C18.8752 8.89078 18.7424 9.47845 18.3024 9.77414L18.8602 10.6041C19.7401 10.0127 20.0057 8.83741 19.4655 7.92511L18.6051 8.43463ZM18.3018 7.92257L18.6051 8.43463L19.4655 7.92511L19.1623 7.41305L18.3018 7.92257ZM16.9818 7.54396C17.4526 7.30032 18.0317 7.46642 18.3018 7.92257L19.1623 7.41305C18.6221 6.50075 17.4638 6.16855 16.5222 6.65584L16.9818 7.54396ZM14.4344 7.0666C14.6303 7.16349 14.8197 7.27174 15.0017 7.3905L15.5482 6.55307C15.3332 6.41275 15.1094 6.28479 14.8777 6.1702L14.4344 7.0666ZM12.2976 4.5C12.8277 4.5 13.2657 4.91369 13.2959 5.44295L14.2943 5.3859C14.2338 4.32738 13.3578 3.5 12.2976 3.5V4.5ZM11.7025 4.5H12.2976V3.5H11.7025V4.5ZM13.5 12C13.5 12.8284 12.8284 13.5 12 13.5V14.5C13.3807 14.5 14.5 13.3807 14.5 12H13.5ZM12 10.5C12.8284 10.5 13.5 11.1716 13.5 12H14.5C14.5 10.6193 13.3807 9.5 12 9.5V10.5ZM10.5 12C10.5 11.1716 11.1716 10.5 12 10.5V9.5C10.6193 9.5 9.5 10.6193 9.5 12H10.5ZM12 13.5C11.1716 13.5 10.5 12.8284 10.5 12H9.5C9.5 13.3807 10.6193 14.5 12 14.5V13.5ZM14.8777 6.1702C14.5276 5.99711 14.3119 5.69469 14.2943 5.3859L13.2959 5.44295C13.3385 6.18844 13.8379 6.77162 14.4344 7.0666L14.8777 6.1702ZM16.5222 6.65584C16.2466 6.79845 15.8757 6.76676 15.5482 6.55307L15.0017 7.3905C15.5603 7.75506 16.3177 7.8876 16.9818 7.54396L16.5222 6.65584ZM18.4815 11.5065C18.4523 11.117 18.6029 10.777 18.8602 10.6041L18.3024 9.77414C17.6826 10.1906 17.4344 10.9173 17.4843 11.5815L18.4815 11.5065ZM15.5482 17.4469C15.8757 17.2332 16.2466 17.2015 16.5222 17.3442L16.9818 16.456C16.3177 16.1124 15.5603 16.2449 15.0017 16.6095L15.5482 17.4469ZM18.8602 13.3959C18.6029 13.223 18.4523 12.883 18.4815 12.4935L17.4843 12.4185C17.4344 13.0827 17.6826 13.8094 18.3024 14.2259L18.8602 13.3959ZM9.12236 17.8298C9.47241 18.0029 9.68806 18.3053 9.70571 18.6141L10.7041 18.557C10.6615 17.8116 10.1622 17.2284 9.56561 16.9334L9.12236 17.8298ZM7.47783 17.3442C7.75342 17.2015 8.12436 17.2332 8.45177 17.4469L8.99831 16.6095C8.43973 16.2449 7.68227 16.1124 7.01823 16.456L7.47783 17.3442ZM14.2943 18.6141C14.3119 18.3053 14.5276 18.0029 14.8777 17.8298L14.4344 16.9334C13.8379 17.2284 13.3385 17.8116 13.2959 18.5571L14.2943 18.6141ZM5.51848 12.4935C5.54775 12.883 5.39711 13.223 5.13986 13.3959L5.69764 14.2259C6.31738 13.8094 6.56558 13.0827 6.51567 12.4185L5.51848 12.4935ZM5.13986 10.6041C5.39711 10.777 5.54775 11.117 5.51848 11.5065L6.51567 11.5815C6.56558 10.9173 6.31738 10.1906 5.69764 9.77414L5.13986 10.6041ZM8.45177 6.55307C8.12436 6.76676 7.75342 6.79845 7.47783 6.65584L7.01823 7.54396C7.68227 7.8876 8.43973 7.75506 8.99831 7.3905L8.45177 6.55307ZM9.70571 5.3859C9.68806 5.69469 9.47241 5.99711 9.12236 6.1702L9.56561 7.0666C10.1622 6.77162 10.6615 6.18844 10.7041 5.44295L9.70571 5.3859Z" fill="#22272F"/>
<circle cx="12" cy="12" r="2" stroke="#22272F"/>
</svg>
