<svg width="24" height="24" viewBox="0 0 24 24" fill="none" xmlns="http://www.w3.org/2000/svg">
<path d="M5.26794 7.66781L5.91329 8.04995L5.26794 7.66781ZM4.96473 8.17987L5.61007 8.56201L5.61007 8.56201L4.96473 8.17987ZM4.96473 15.8201L4.31938 16.2023L4.31938 16.2023L4.96473 15.8201ZM5.26794 16.3322L4.6226 16.7143L4.6226 16.7143L5.26794 16.3322ZM18.7321 16.3322L18.0867 15.9501L18.0867 15.9501L18.7321 16.3322ZM19.0353 15.8201L19.6806 16.2023L19.6806 16.2023L19.0353 15.8201ZM19.0353 8.17987L19.6806 7.79773L19.6806 7.79773L19.0353 8.17987ZM18.7321 7.66781L18.0867 8.04995L18.0867 8.04995L18.7321 7.66781ZM17.9829 11.544L17.235 11.6002L17.9829 11.544ZM15.275 17.0282L15.6849 17.6563L15.275 17.0282ZM17.9829 12.456L18.7308 12.5122L17.9829 12.456ZM9.34399 17.3816L9.01155 18.0539L9.34399 17.3816ZM8.72504 17.0282L9.13495 16.4001L8.72504 17.0282ZM14.656 17.3816L14.3236 16.7093L14.656 17.3816ZM6.01707 11.544L5.26918 11.4878L6.01707 11.544ZM9.34398 6.6184L9.01155 5.9461L9.34398 6.6184ZM10.9537 5.45721C10.9764 5.06027 11.3049 4.75 11.7025 4.75V3.25C10.5097 3.25 9.52416 4.1808 9.45612 5.37164L10.9537 5.45721ZM9.13495 7.59986C9.30866 7.48649 9.48942 7.38317 9.67642 7.2907L9.01155 5.9461C8.77088 6.06511 8.53839 6.198 8.31513 6.34371L9.13495 7.59986ZM5.91329 8.04995C6.11587 7.70784 6.55022 7.58326 6.90333 7.76599L7.59273 6.43381C6.5334 5.8856 5.23034 6.25933 4.6226 7.28567L5.91329 8.04995ZM5.61007 8.56201L5.91329 8.04995L4.6226 7.28567L4.31938 7.79773L5.61007 8.56201ZM5.83708 9.56664C5.50708 9.34488 5.40749 8.90412 5.61007 8.56201L4.31938 7.79773C3.71164 8.82407 4.01042 10.1463 5.00041 10.8116L5.83708 9.56664ZM6.75001 12C6.75001 11.8654 6.75506 11.732 6.76497 11.6002L5.26918 11.4878C5.25647 11.657 5.25001 11.8278 5.25001 12H6.75001ZM6.76497 12.3998C6.75506 12.268 6.75001 12.1346 6.75001 12H5.25001C5.25001 12.1722 5.25647 12.343 5.26918 12.5122L6.76497 12.3998ZM5.61007 15.438C5.40749 15.0959 5.50708 14.6551 5.83708 14.4334L5.00041 13.1884C4.01042 13.8537 3.71164 15.1759 4.31938 16.2023L5.61007 15.438ZM5.91329 15.9501L5.61007 15.438L4.31938 16.2023L4.6226 16.7143L5.91329 15.9501ZM6.90333 16.234C6.55022 16.4167 6.11587 16.2922 5.91329 15.9501L4.6226 16.7143C5.23034 17.7407 6.5334 18.1144 7.59273 17.5662L6.90333 16.234ZM9.67642 16.7093C9.48943 16.6168 9.30866 16.5135 9.13495 16.4001L8.31513 17.6563C8.53839 17.802 8.77088 17.9349 9.01155 18.0539L9.67642 16.7093ZM11.7025 19.25C11.3049 19.25 10.9764 18.9397 10.9537 18.5428L9.45612 18.6284C9.52416 19.8192 10.5097 20.75 11.7025 20.75V19.25ZM12.2976 19.25H11.7025V20.75H12.2976V19.25ZM13.0463 18.5428C13.0237 18.9397 12.6952 19.25 12.2976 19.25V20.75C13.4903 20.75 14.4758 19.8192 14.5439 18.6284L13.0463 18.5428ZM14.8651 16.4001C14.6914 16.5135 14.5106 16.6168 14.3236 16.7093L14.9885 18.0539C15.2291 17.9349 15.4616 17.802 15.6849 17.6563L14.8651 16.4001ZM18.0867 15.9501C17.8841 16.2922 17.4498 16.4167 17.0967 16.234L16.4073 17.5662C17.4666 18.1144 18.7697 17.7407 19.3774 16.7143L18.0867 15.9501ZM18.3899 15.438L18.0867 15.9501L19.3774 16.7143L19.6806 16.2023L18.3899 15.438ZM18.1629 14.4334C18.4929 14.6551 18.5925 15.0959 18.3899 15.438L19.6806 16.2023C20.2884 15.1759 19.9896 13.8537 18.9996 13.1884L18.1629 14.4334ZM17.25 12C17.25 12.1346 17.245 12.268 17.235 12.3998L18.7308 12.5122C18.7435 12.343 18.75 12.1722 18.75 12H17.25ZM17.235 11.6002C17.245 11.732 17.25 11.8654 17.25 12H18.75C18.75 11.8278 18.7435 11.657 18.7308 11.4878L17.235 11.6002ZM18.3899 8.56201C18.5925 8.90413 18.4929 9.34488 18.1629 9.56664L18.9996 10.8116C19.9896 10.1463 20.2884 8.82407 19.6806 7.79773L18.3899 8.56201ZM18.0867 8.04995L18.3899 8.56201L19.6806 7.79773L19.3774 7.28567L18.0867 8.04995ZM17.0967 7.76599C17.4498 7.58326 17.8841 7.70784 18.0867 8.04995L19.3774 7.28567C18.7697 6.25933 17.4666 5.8856 16.4073 6.43381L17.0967 7.76599ZM14.3236 7.2907C14.5106 7.38317 14.6914 7.48649 14.8651 7.59986L15.6849 6.34371C15.4616 6.198 15.2291 6.06511 14.9885 5.9461L14.3236 7.2907ZM12.2976 4.75C12.6952 4.75 13.0237 5.06027 13.0463 5.45721L14.5439 5.37164C14.4758 4.1808 13.4903 3.25 12.2976 3.25V4.75ZM11.7025 4.75H12.2976V3.25H11.7025V4.75ZM13.25 12C13.25 12.6904 12.6904 13.25 12 13.25V14.75C13.5188 14.75 14.75 13.5188 14.75 12H13.25ZM12 10.75C12.6904 10.75 13.25 11.3096 13.25 12H14.75C14.75 10.4812 13.5188 9.25 12 9.25V10.75ZM10.75 12C10.75 11.3096 11.3096 10.75 12 10.75V9.25C10.4812 9.25 9.25 10.4812 9.25 12H10.75ZM12 13.25C11.3096 13.25 10.75 12.6904 10.75 12H9.25C9.25 13.5188 10.4812 14.75 12 14.75V13.25ZM14.9885 5.9461C14.7 5.80349 14.5553 5.57126 14.5439 5.37164L13.0463 5.45721C13.0952 6.31187 13.6654 6.96525 14.3236 7.2907L14.9885 5.9461ZM16.4073 6.43381C16.2288 6.52617 15.9545 6.51968 15.6849 6.34371L14.8651 7.59986C15.4814 8.00213 16.3355 8.15989 17.0967 7.76599L16.4073 6.43381ZM18.7308 11.4878C18.7067 11.167 18.833 10.9236 18.9996 10.8116L18.1629 9.56664C17.4526 10.044 17.18 10.8673 17.235 11.6002L18.7308 11.4878ZM15.6849 17.6563C15.9545 17.4803 16.2288 17.4738 16.4073 17.5662L17.0967 16.234C16.3355 15.8401 15.4814 15.9979 14.8651 16.4001L15.6849 17.6563ZM18.9996 13.1884C18.833 13.0764 18.7067 12.833 18.7308 12.5122L17.235 12.3998C17.18 13.1327 17.4526 13.956 18.1629 14.4334L18.9996 13.1884ZM9.01155 18.0539C9.29997 18.1965 9.44471 18.4287 9.45612 18.6284L10.9537 18.5428C10.9048 17.6881 10.3346 17.0348 9.67642 16.7093L9.01155 18.0539ZM7.59273 17.5662C7.77121 17.4738 8.04551 17.4803 8.31513 17.6563L9.13495 16.4001C8.51857 15.9979 7.66448 15.8401 6.90333 16.234L7.59273 17.5662ZM14.5439 18.6284C14.5553 18.4287 14.7 18.1965 14.9885 18.0539L14.3236 16.7093C13.6654 17.0348 13.0952 17.6881 13.0463 18.5428L14.5439 18.6284ZM5.26918 12.5122C5.29329 12.833 5.16704 13.0764 5.00041 13.1884L5.83708 14.4334C6.54745 13.956 6.82004 13.1327 6.76497 12.3998L5.26918 12.5122ZM5.00041 10.8116C5.16704 10.9236 5.29329 11.167 5.26918 11.4878L6.76497 11.6002C6.82004 10.8673 6.54745 10.044 5.83708 9.56664L5.00041 10.8116ZM8.31513 6.34371C8.04551 6.51968 7.77121 6.52617 7.59273 6.43381L6.90333 7.76599C7.66448 8.15989 8.51858 8.00213 9.13495 7.59986L8.31513 6.34371ZM9.45612 5.37164C9.44471 5.57126 9.29997 5.80349 9.01155 5.9461L9.67642 7.2907C10.3346 6.96525 10.9048 6.31187 10.9537 5.45721L9.45612 5.37164Z" fill="#22272F"/>
<circle cx="12" cy="12" r="2" stroke="#00AB3F" stroke-width="1.5"/>
</svg>
