<svg width="24" height="24" viewBox="0 0 24 24" fill="none" xmlns="http://www.w3.org/2000/svg">
<path d="M5.26794 7.66781L6.1284 8.17733L5.26794 7.66781ZM4.96473 8.17987L5.82518 8.68939L5.82518 8.68939L4.96473 8.17987ZM4.96473 15.8201L4.10427 16.3296L4.10427 16.3296L4.96473 15.8201ZM5.26794 16.3322L4.40748 16.8417L4.40749 16.8417L5.26794 16.3322ZM18.7321 16.3322L17.8716 15.8227L17.8716 15.8227L18.7321 16.3322ZM19.0353 15.8201L19.8957 16.3296L19.8957 16.3296L19.0353 15.8201ZM19.0353 8.17987L19.8957 7.67035L19.8957 7.67035L19.0353 8.17987ZM18.7321 7.66781L17.8716 8.17733L17.8716 8.17733L18.7321 7.66781ZM17.9829 11.544L16.9857 11.6189L17.9829 11.544ZM15.275 17.0282L15.8215 17.8656L15.275 17.0282ZM17.9829 12.456L18.9801 12.5309L17.9829 12.456ZM9.34399 17.3816L8.90073 18.278L9.34399 17.3816ZM8.72504 17.0282L9.27159 16.1908L8.72504 17.0282ZM14.656 17.3816L14.2128 16.4852L14.656 17.3816ZM6.01707 11.544L5.01989 11.4691L6.01707 11.544ZM9.34398 6.6184L8.90073 5.72201L9.34398 6.6184ZM11.2033 5.47147C11.2184 5.20685 11.4374 5 11.7025 5V3C10.3771 3 9.28213 4.03422 9.20652 5.35737L11.2033 5.47147ZM9.27159 7.80921C9.43704 7.70123 9.60918 7.60284 9.78724 7.5148L8.90073 5.72201C8.65112 5.84543 8.41001 5.98326 8.17849 6.13436L9.27159 7.80921ZM6.1284 8.17733C6.26346 7.94925 6.55303 7.8662 6.78843 7.98802L7.70763 6.21177C6.53059 5.60266 5.08275 6.01792 4.40749 7.15829L6.1284 8.17733ZM5.82518 8.68939L6.1284 8.17733L4.40749 7.15829L4.10427 7.67035L5.82518 8.68939ZM5.97652 9.35915C5.75653 9.2113 5.69013 8.91747 5.82518 8.68939L4.10427 7.67035C3.429 8.81073 3.76098 10.2799 4.86097 11.0191L5.97652 9.35915ZM7.00001 12C7.00001 11.8716 7.00482 11.7445 7.01426 11.6189L5.01989 11.4691C5.0067 11.6445 5.00001 11.8216 5.00001 12H7.00001ZM7.01426 12.3811C7.00482 12.2555 7.00001 12.1284 7.00001 12H5.00001C5.00001 12.1784 5.0067 12.3555 5.01989 12.5309L7.01426 12.3811ZM5.82518 15.3106C5.69013 15.0825 5.75653 14.7887 5.97652 14.6409L4.86097 12.9809C3.76098 13.7201 3.429 15.1893 4.10427 16.3296L5.82518 15.3106ZM6.1284 15.8227L5.82518 15.3106L4.10427 16.3296L4.40748 16.8417L6.1284 15.8227ZM6.78843 16.012C6.55302 16.1338 6.26346 16.0507 6.1284 15.8227L4.40749 16.8417C5.08275 17.9821 6.53059 18.3973 7.70763 17.7882L6.78843 16.012ZM9.78724 16.4852C9.60918 16.3972 9.43704 16.2988 9.27159 16.1908L8.17849 17.8656C8.41001 18.0167 8.65112 18.1546 8.90073 18.278L9.78724 16.4852ZM11.7025 19C11.4374 19 11.2184 18.7932 11.2033 18.5285L9.20652 18.6426C9.28213 19.9658 10.3771 21 11.7025 21V19ZM12.2976 19H11.7025V21H12.2976V19ZM12.7967 18.5285C12.7816 18.7932 12.5626 19 12.2976 19V21C13.6229 21 14.7179 19.9658 14.7935 18.6426L12.7967 18.5285ZM14.7284 16.1908C14.563 16.2988 14.3908 16.3972 14.2128 16.4852L15.0993 18.278C15.3489 18.1546 15.59 18.0167 15.8215 17.8656L14.7284 16.1908ZM17.8716 15.8227C17.7366 16.0507 17.447 16.1338 17.2116 16.012L16.2924 17.7882C17.4694 18.3973 18.9173 17.9821 19.5925 16.8417L17.8716 15.8227ZM18.1748 15.3106L17.8716 15.8227L19.5925 16.8417L19.8957 16.3296L18.1748 15.3106ZM18.0235 14.6409C18.2435 14.7887 18.3099 15.0825 18.1748 15.3106L19.8957 16.3296C20.571 15.1893 20.239 13.7201 19.139 12.9809L18.0235 14.6409ZM17 12C17 12.1284 16.9952 12.2555 16.9857 12.3811L18.9801 12.5309C18.9933 12.3555 19 12.1784 19 12H17ZM16.9857 11.6189C16.9952 11.7445 17 11.8716 17 12H19C19 11.8216 18.9933 11.6445 18.9801 11.4691L16.9857 11.6189ZM18.1748 8.68939C18.3099 8.91747 18.2435 9.2113 18.0235 9.35915L19.139 11.0191C20.239 10.2799 20.571 8.81073 19.8957 7.67035L18.1748 8.68939ZM17.8716 8.17733L18.1748 8.68939L19.8957 7.67035L19.5925 7.15829L17.8716 8.17733ZM17.2116 7.98802C17.447 7.8662 17.7366 7.94925 17.8716 8.17733L19.5925 7.15829C18.9173 6.01792 17.4694 5.60266 16.2924 6.21177L17.2116 7.98802ZM14.2128 7.5148C14.3908 7.60284 14.563 7.70123 14.7284 7.80921L15.8215 6.13436C15.59 5.98326 15.3489 5.84543 15.0993 5.722L14.2128 7.5148ZM12.2976 5C12.5626 5 12.7816 5.20684 12.7967 5.47147L14.7935 5.35738C14.7179 4.03423 13.6229 3 12.2976 3V5ZM11.7025 5H12.2976V3H11.7025V5ZM13 12C13 12.5523 12.5523 13 12 13V15C13.6569 15 15 13.6569 15 12H13ZM12 11C12.5523 11 13 11.4477 13 12H15C15 10.3431 13.6569 9 12 9V11ZM11 12C11 11.4477 11.4477 11 12 11V9C10.3431 9 9 10.3431 9 12H11ZM12 13C11.4477 13 11 12.5523 11 12H9C9 13.6569 10.3431 15 12 15V13ZM15.0993 5.722C14.8725 5.60986 14.7987 5.44782 14.7935 5.35738L12.7967 5.47148C12.8518 6.43531 13.493 7.15887 14.2128 7.5148L15.0993 5.722ZM16.2924 6.21177C16.211 6.25388 16.0333 6.2726 15.8215 6.13436L14.7284 7.80921C15.4026 8.24921 16.3533 8.43217 17.2116 7.98802L16.2924 6.21177ZM18.9801 11.4691C18.9612 11.2169 19.063 11.0702 19.139 11.0191L18.0235 9.35915C17.2225 9.89744 16.9255 10.8174 16.9857 11.6189L18.9801 11.4691ZM15.8215 17.8656C16.0333 17.7274 16.211 17.7461 16.2924 17.7882L17.2116 16.012C16.3533 15.5678 15.4026 15.7508 14.7284 16.1908L15.8215 17.8656ZM19.139 12.9809C19.063 12.9298 18.9612 12.7831 18.9801 12.5309L16.9857 12.3811C16.9255 13.1826 17.2225 14.1026 18.0235 14.6409L19.139 12.9809ZM8.90073 18.278C9.12753 18.3901 9.20136 18.5522 9.20652 18.6426L11.2033 18.5285C11.1482 17.5647 10.507 16.8411 9.78724 16.4852L8.90073 18.278ZM7.70763 17.7882C7.789 17.7461 7.96667 17.7274 8.17849 17.8656L9.27159 16.1908C8.59742 15.7508 7.6467 15.5678 6.78843 16.012L7.70763 17.7882ZM14.7935 18.6426C14.7987 18.5522 14.8725 18.3901 15.0993 18.278L14.2128 16.4852C13.493 16.8411 12.8518 17.5647 12.7967 18.5285L14.7935 18.6426ZM5.01989 12.5309C5.03883 12.7831 4.93697 12.9298 4.86097 12.9809L5.97652 14.6409C6.77752 14.1026 7.0745 13.1826 7.01426 12.3811L5.01989 12.5309ZM4.86097 11.0191C4.93697 11.0702 5.03883 11.2169 5.01989 11.4691L7.01426 11.6189C7.0745 10.8174 6.77752 9.89744 5.97652 9.35915L4.86097 11.0191ZM8.17849 6.13436C7.96667 6.2726 7.789 6.25388 7.70763 6.21177L6.78843 7.98802C7.6467 8.43217 8.59742 8.24921 9.27159 7.80921L8.17849 6.13436ZM9.20652 5.35737C9.20136 5.44782 9.12753 5.60986 8.90073 5.72201L9.78724 7.5148C10.507 7.15887 11.1482 6.43531 11.2033 5.47147L9.20652 5.35737Z" fill="#22272F"/>
<circle cx="12" cy="12" r="2" stroke="#22272F" stroke-width="2"/>
</svg>
