<svg width="24" height="24" viewBox="0 0 24 24" fill="none" xmlns="http://www.w3.org/2000/svg">
<path d="M4 11.5714C4 11.0383 4 10.7718 4.09903 10.5661C4.19732 10.362 4.36201 10.1973 4.56612 10.099C4.77176 10 5.03831 10 5.57143 10H18.4286C18.9617 10 19.2282 10 19.4339 10.099C19.638 10.1973 19.8027 10.362 19.901 10.5661C20 10.7718 20 11.0383 20 11.5714V13C20 14.8599 20 15.7899 19.7956 16.5529C19.2408 18.6235 17.6235 20.2408 15.5529 20.7956C14.7899 21 13.8599 21 12 21V21C10.1401 21 9.21009 21 8.44709 20.7956C6.37653 20.2408 4.75925 18.6235 4.20445 16.5529C4 15.7899 4 14.8599 4 13V11.5714Z" stroke="#22272F"/>
<path d="M12 10V21" stroke="#22272F" stroke-linecap="round"/>
<path d="M11.9414 5.24298C11.727 6.04318 8.97263 6.00042 8.17243 5.78601C7.37223 5.57159 6.89736 4.74909 7.11177 3.94889C7.32618 3.14869 8.14869 2.67382 8.94889 2.88823C9.74909 3.10264 12.1558 4.44278 11.9414 5.24298Z" stroke="#22272F"/>
<path d="M12.0586 5.24298C12.273 6.04318 15.0274 6.00042 15.8276 5.78601C16.6278 5.57159 17.1026 4.74909 16.8882 3.94889C16.6738 3.14869 15.8513 2.67382 15.0511 2.88823C14.2509 3.10264 11.8442 4.44278 12.0586 5.24298Z" stroke="#22272F"/>
<path d="M3 9C3 7.34315 4.34315 6 6 6H18C19.6569 6 21 7.34315 21 9V9C21 9.55228 20.5523 10 20 10H4C3.44772 10 3 9.55228 3 9V9Z" stroke="#22272F"/>
</svg>
