<svg width="24" height="24" viewBox="0 0 24 24" fill="none" xmlns="http://www.w3.org/2000/svg">
<path d="M3 9C3 7.34315 4.34315 6 6 6H18C19.6569 6 21 7.34315 21 9V9C21 9.55228 20.5523 10 20 10H4C3.44772 10 3 9.55228 3 9V9Z" fill="black" fill-opacity="0.32"/>
<path fill-rule="evenodd" clip-rule="evenodd" d="M8.25479 4.11254C7.85469 4.00533 7.44344 4.24277 7.33623 4.64287C7.22903 5.04297 7.46646 5.45422 7.86656 5.56143C8.15414 5.63849 8.9496 5.70606 9.71926 5.64704C10.0625 5.62072 10.3543 5.57215 10.5645 5.50789C10.4146 5.34714 10.1861 5.15915 9.90208 4.96475C9.26504 4.5288 8.54237 4.1896 8.25479 4.11254ZM10.7141 5.70698C10.7139 5.70695 10.7128 5.70457 10.7114 5.69997C10.7136 5.70472 10.7143 5.70702 10.7141 5.70698ZM10.7877 5.41497C10.7913 5.41169 10.7934 5.41019 10.7936 5.41026C10.7938 5.41032 10.792 5.41196 10.7877 5.41497ZM5.88735 4.25464C6.20896 3.05434 7.44272 2.34203 8.64302 2.66365C9.15564 2.80101 10.0364 3.23908 10.7492 3.72686C11.1106 3.9742 11.4764 4.26596 11.7451 4.57808C11.8241 4.66981 11.9178 4.78986 12 4.93218C12.0822 4.78986 12.1759 4.66981 12.2549 4.57808C12.5237 4.26596 12.8894 3.9742 13.2508 3.72686C13.9636 3.23908 14.8444 2.80101 15.357 2.66365C16.5573 2.34203 17.7911 3.05434 18.1127 4.25464C18.2776 4.87008 18.1707 5.49431 17.8656 5.99988H6.13449C5.82935 5.49431 5.72244 4.87008 5.88735 4.25464ZM15.7453 4.11254C16.1454 4.00533 16.5566 4.24277 16.6638 4.64287C16.771 5.04297 16.5336 5.45422 16.1335 5.56143C15.8459 5.63849 15.0504 5.70606 14.2808 5.64704C13.9376 5.62072 13.6457 5.57215 13.4355 5.50789C13.5854 5.34714 13.8139 5.15915 14.098 4.96475C14.735 4.5288 15.4577 4.1896 15.7453 4.11254ZM13.2859 5.70698C13.2861 5.70695 13.2872 5.70457 13.2887 5.69997C13.2864 5.70472 13.2857 5.70702 13.2859 5.70698ZM13.2123 5.41497C13.2088 5.41169 13.2066 5.41019 13.2064 5.41026C13.2062 5.41032 13.208 5.41196 13.2123 5.41497Z" fill="#22272F"/>
<path fill-rule="evenodd" clip-rule="evenodd" d="M11.5 11H5.42857C5.02959 11 4.83009 11 4.66972 11.0561C4.38247 11.1566 4.15663 11.3825 4.05612 11.6697C4 11.8301 4 12.0296 4 12.4286V13C4 14.8599 4 15.7899 4.20445 16.5529C4.75925 18.6235 6.37653 20.2408 8.44709 20.7956C9.13844 20.9808 9.96687 20.9982 11.5 20.9998V11ZM12.5 20.9998C14.0331 20.9982 14.8616 20.9808 15.5529 20.7956C17.6235 20.2408 19.2408 18.6235 19.7956 16.5529C20 15.7899 20 14.8599 20 13V12.4286C20 12.0296 20 11.8301 19.9439 11.6697C19.8434 11.3825 19.6175 11.1566 19.3303 11.0561C19.1699 11 18.9704 11 18.5714 11H12.5V20.9998Z" fill="black" fill-opacity="0.32"/>
</svg>
