<svg width="24" height="24" viewBox="0 0 24 24" fill="none" xmlns="http://www.w3.org/2000/svg">
<path d="M4 12.4286C4 12.0296 4 11.8301 4.05612 11.6697C4.15663 11.3825 4.38247 11.1566 4.66972 11.0561C4.83009 11 5.02959 11 5.42857 11H18.5714C18.9704 11 19.1699 11 19.3303 11.0561C19.6175 11.1566 19.8434 11.3825 19.9439 11.6697C20 11.8301 20 12.0296 20 12.4286V13C20 14.8599 20 15.7899 19.7956 16.5529C19.2408 18.6235 17.6235 20.2408 15.5529 20.7956C14.7899 21 13.8599 21 12 21V21C10.1401 21 9.21009 21 8.44709 20.7956C6.37653 20.2408 4.75925 18.6235 4.20445 16.5529C4 15.7899 4 14.8599 4 13V12.4286Z" stroke="#22272F" stroke-width="1.5"/>
<path d="M12 11V21" stroke="#22272F" stroke-width="1.5" stroke-linecap="round"/>
<path d="M11.4414 5.74298C11.227 6.54318 8.47263 6.50042 7.67243 6.28601C6.87223 6.07159 6.39736 5.24909 6.61177 4.44889C6.82618 3.64869 7.64869 3.17382 8.44889 3.38823C9.24909 3.60264 11.6558 4.94278 11.4414 5.74298Z" stroke="#22272F" stroke-width="1.5"/>
<path d="M12.5586 5.74298C12.773 6.54318 15.5274 6.50042 16.3276 6.28601C17.1278 6.07159 17.6026 5.24909 17.3882 4.44889C17.1738 3.64869 16.3513 3.17382 15.5511 3.38823C14.7509 3.60264 12.3442 4.94278 12.5586 5.74298Z" stroke="#22272F" stroke-width="1.5"/>
<path d="M3 10C3 8.34315 4.34315 7 6 7H18C19.6569 7 21 8.34315 21 10V10C21 10.5523 20.5523 11 20 11H4C3.44772 11 3 10.5523 3 10V10Z" stroke="#22272F" stroke-width="1.5"/>
</svg>
