<svg width="24" height="24" viewBox="0 0 24 24" fill="none" xmlns="http://www.w3.org/2000/svg">
<path d="M3 9C3 7.34315 4.34315 6 6 6H18C19.6569 6 21 7.34315 21 9V9C21 9.55228 20.5523 10 20 10H4C3.44772 10 3 9.55228 3 9V9Z" fill="#22272F"/>
<path fill-rule="evenodd" clip-rule="evenodd" d="M11.5 11H5.42857C5.02959 11 4.83009 11 4.66972 11.0561C4.38247 11.1566 4.15663 11.3825 4.05612 11.6697C4 11.8301 4 12.0296 4 12.4286V13C4 14.8599 4 15.7899 4.20445 16.5529C4.75925 18.6235 6.37653 20.2408 8.44709 20.7956C9.13844 20.9808 9.96687 20.9982 11.5 20.9998V11ZM12.5 20.9998C14.0331 20.9982 14.8616 20.9808 15.5529 20.7956C17.6235 20.2408 19.2408 18.6235 19.7956 16.5529C20 15.7899 20 14.8599 20 13V12.4286C20 12.0296 20 11.8301 19.9439 11.6697C19.8434 11.3825 19.6175 11.1566 19.3303 11.0561C19.1699 11 18.9704 11 18.5714 11H12.5V20.9998Z" fill="#22272F"/>
<path d="M11.4414 5.74298C11.227 6.54318 8.47263 6.50042 7.67243 6.28601C6.87223 6.07159 6.39736 5.24909 6.61177 4.44889C6.82618 3.64869 7.64869 3.17382 8.44889 3.38823C9.24909 3.60264 11.6558 4.94278 11.4414 5.74298Z" stroke="#22272F" stroke-width="1.5"/>
<path d="M12.5586 5.74298C12.773 6.54318 15.5274 6.50042 16.3276 6.28601C17.1278 6.07159 17.6026 5.24909 17.3882 4.44889C17.1738 3.64869 16.3513 3.17382 15.5511 3.38823C14.7509 3.60264 12.3442 4.94278 12.5586 5.74298Z" stroke="#22272F" stroke-width="1.5"/>
</svg>
