<svg width="24" height="24" viewBox="0 0 24 24" fill="none" xmlns="http://www.w3.org/2000/svg">
<path d="M15.8889 3C12.5556 3 12 6 12 6C12 6 11.4444 3 8.11111 3C4.22222 3 2 5.5 2 9.5C2 15.5 10.8889 21 12 21C13.1111 21 22 15.5 22 9.5C22 5.5 19.7778 3 15.8889 3Z" fill="#22272F" fill-opacity="0.12"/>
<path d="M12 6C12 6 12.5556 3 15.8889 3C19.7778 3 22 5.5 22 9.5C22 15.5 13.1111 21 12 21" stroke="#22272F" stroke-width="1.5" stroke-linecap="round" stroke-linejoin="round"/>
<path d="M12 6C12 6 11.4444 3 8.11111 3C4.22222 3 2 5.5 2 9.5C2 15.5 10.8889 21 12 21" stroke="#22272F" stroke-width="1.5" stroke-linecap="round" stroke-linejoin="round"/>
</svg>
