<svg width="24" height="24" viewBox="0 0 24 24" fill="none" xmlns="http://www.w3.org/2000/svg">
<path d="M4.22135 6.0764C4.50208 5.3278 4.64244 4.9535 4.88553 4.67766C5.10028 4.43398 5.37114 4.24627 5.6747 4.13076C6.01833 4 6.41809 4 7.2176 4H16.7824C17.5819 4 17.9817 4 18.3253 4.13076C18.6289 4.24627 18.8997 4.43398 19.1145 4.67766C19.3576 4.9535 19.4979 5.3278 19.7787 6.07641L21.1893 9.8382C21.4617 10.5645 21.5979 10.9277 21.5329 11.2183C21.476 11.4726 21.3222 11.6946 21.1041 11.8371C20.8548 12 20.4669 12 19.6912 12H4.3088C3.53307 12 3.1452 12 2.89592 11.8371C2.67785 11.6946 2.524 11.4726 2.46712 11.2183C2.40211 10.9277 2.5383 10.5645 2.81067 9.8382L4.22135 6.0764Z" fill="#22272F" fill-opacity="0.12" stroke="#22272F" stroke-width="1.5"/>
<path fill-rule="evenodd" clip-rule="evenodd" d="M20 12H4V18.4C4 18.9601 4 19.2401 4.10899 19.454C4.20487 19.6422 4.35785 19.7951 4.54601 19.891C4.75992 20 5.03995 20 5.6 20H10V16.6C10 16.0399 10 15.7599 10.109 15.546C10.2049 15.3578 10.3578 15.2049 10.546 15.109C10.7599 15 11.0399 15 11.6 15H12.4C12.9601 15 13.2401 15 13.454 15.109C13.6422 15.2049 13.7951 15.3578 13.891 15.546C14 15.7599 14 16.0399 14 16.6V20H18.4C18.9601 20 19.2401 20 19.454 19.891C19.6422 19.7951 19.7951 19.6422 19.891 19.454C20 19.2401 20 18.9601 20 18.4V12Z" fill="#22272F" fill-opacity="0.12"/>
<path d="M4 12V11.25H3.25V12H4ZM20 12H20.75V11.25H20V12ZM4.10899 19.454L4.77725 19.1135L4.77725 19.1135L4.10899 19.454ZM4.54601 19.891L4.8865 19.2228L4.8865 19.2228L4.54601 19.891ZM10 20V20.75H10.75V20H10ZM10.109 15.546L10.7772 15.8865L10.7772 15.8865L10.109 15.546ZM10.546 15.109L10.8865 15.7772L10.8865 15.7772L10.546 15.109ZM13.454 15.109L13.7945 14.4407L13.7945 14.4407L13.454 15.109ZM13.891 15.546L13.2228 15.8865L13.2228 15.8865L13.891 15.546ZM14 20H13.25V20.75H14V20ZM19.454 19.891L19.7945 20.5593L19.7945 20.5593L19.454 19.891ZM19.891 19.454L19.2228 19.1135L19.2228 19.1135L19.891 19.454ZM4 12.75H20V11.25H4V12.75ZM4.75 18.4V12H3.25V18.4H4.75ZM4.77725 19.1135C4.7856 19.1299 4.77097 19.1161 4.76113 18.9957C4.75058 18.8666 4.75 18.6924 4.75 18.4H3.25C3.25 18.6677 3.24942 18.9135 3.26612 19.1179C3.28353 19.331 3.32339 19.5642 3.44074 19.7945L4.77725 19.1135ZM4.8865 19.2228C4.83946 19.1988 4.80122 19.1605 4.77725 19.1135L3.44074 19.7945C3.60852 20.1238 3.87623 20.3915 4.20552 20.5593L4.8865 19.2228ZM5.6 19.25C5.3076 19.25 5.1334 19.2494 5.00428 19.2389C4.8839 19.229 4.87011 19.2144 4.8865 19.2228L4.20552 20.5593C4.43582 20.6766 4.669 20.7165 4.88213 20.7339C5.08651 20.7506 5.33235 20.75 5.6 20.75V19.25ZM10 19.25H5.6V20.75H10V19.25ZM10.75 20V16.6H9.25V20H10.75ZM10.75 16.6C10.75 16.3076 10.7506 16.1334 10.7611 16.0043C10.771 15.8839 10.7856 15.8701 10.7772 15.8865L9.44074 15.2055C9.32339 15.4358 9.28353 15.669 9.26612 15.8821C9.24942 16.0865 9.25 16.3323 9.25 16.6H10.75ZM10.7772 15.8865C10.8012 15.8395 10.8395 15.8012 10.8865 15.7772L10.2055 14.4407C9.87623 14.6085 9.60852 14.8762 9.44074 15.2055L10.7772 15.8865ZM10.8865 15.7772C10.8701 15.7856 10.8839 15.771 11.0043 15.7611C11.1334 15.7506 11.3076 15.75 11.6 15.75V14.25C11.3323 14.25 11.0865 14.2494 10.8821 14.2661C10.669 14.2835 10.4358 14.3234 10.2055 14.4407L10.8865 15.7772ZM11.6 15.75H12.4V14.25H11.6V15.75ZM12.4 15.75C12.6924 15.75 12.8666 15.7506 12.9957 15.7611C13.1161 15.771 13.1299 15.7856 13.1135 15.7772L13.7945 14.4407C13.5642 14.3234 13.331 14.2835 13.1179 14.2661C12.9135 14.2494 12.6677 14.25 12.4 14.25V15.75ZM13.1135 15.7772C13.1605 15.8012 13.1988 15.8395 13.2228 15.8865L14.5593 15.2055C14.3915 14.8762 14.1238 14.6085 13.7945 14.4407L13.1135 15.7772ZM13.2228 15.8865C13.2144 15.8701 13.229 15.8839 13.2389 16.0043C13.2494 16.1334 13.25 16.3076 13.25 16.6H14.75C14.75 16.3323 14.7506 16.0865 14.7339 15.8821C14.7165 15.669 14.6766 15.4358 14.5593 15.2055L13.2228 15.8865ZM13.25 16.6V20H14.75V16.6H13.25ZM18.4 19.25H14V20.75H18.4V19.25ZM19.1135 19.2228C19.1299 19.2144 19.1161 19.229 18.9957 19.2389C18.8666 19.2494 18.6924 19.25 18.4 19.25V20.75C18.6677 20.75 18.9135 20.7506 19.1179 20.7339C19.331 20.7165 19.5642 20.6766 19.7945 20.5593L19.1135 19.2228ZM19.2228 19.1135C19.1988 19.1605 19.1605 19.1988 19.1135 19.2228L19.7945 20.5593C20.1238 20.3915 20.3915 20.1238 20.5593 19.7945L19.2228 19.1135ZM19.25 18.4C19.25 18.6924 19.2494 18.8666 19.2389 18.9957C19.229 19.1161 19.2144 19.1299 19.2228 19.1135L20.5593 19.7945C20.6766 19.5642 20.7165 19.331 20.7339 19.1179C20.7506 18.9135 20.75 18.6677 20.75 18.4H19.25ZM19.25 12V18.4H20.75V12H19.25Z" fill="#22272F"/>
</svg>
