<svg width="24" height="24" viewBox="0 0 24 24" fill="none" xmlns="http://www.w3.org/2000/svg">
<path d="M14 20H18.4C18.9601 20 19.2401 20 19.454 19.891C19.6422 19.7951 19.7951 19.6422 19.891 19.454C20 19.2401 20 18.9601 20 18.4V12H4V18.4C4 18.9601 4 19.2401 4.10899 19.454C4.20487 19.6422 4.35785 19.7951 4.54601 19.891C4.75992 20 5.03995 20 5.6 20H10" stroke="#22272F" stroke-width="1.5" stroke-linecap="round"/>
<path d="M4.22135 6.0764C4.50208 5.3278 4.64244 4.9535 4.88553 4.67766C5.10028 4.43398 5.37114 4.24627 5.6747 4.13076C6.01833 4 6.41809 4 7.2176 4H16.7824C17.5819 4 17.9817 4 18.3253 4.13076C18.6289 4.24627 18.8997 4.43398 19.1145 4.67766C19.3576 4.9535 19.4979 5.3278 19.7787 6.07641L21.1893 9.8382C21.4617 10.5645 21.5979 10.9277 21.5329 11.2183C21.476 11.4726 21.3222 11.6946 21.1041 11.8371C20.8548 12 20.4669 12 19.6912 12H4.3088C3.53307 12 3.1452 12 2.89592 11.8371C2.67785 11.6946 2.524 11.4726 2.46712 11.2183C2.40211 10.9277 2.5383 10.5645 2.81067 9.8382L4.22135 6.0764Z" stroke="#22272F" stroke-width="1.5"/>
<path d="M14 20V16.6C14 16.0399 14 15.7599 13.891 15.546C13.7951 15.3578 13.6422 15.2049 13.454 15.109C13.2401 15 12.9601 15 12.4 15H11.6C11.0399 15 10.7599 15 10.546 15.109C10.3578 15.2049 10.2049 15.3578 10.109 15.546C10 15.7599 10 16.0399 10 16.6V20" stroke="#00AB3F" stroke-width="1.5" stroke-linecap="round"/>
</svg>
