<svg width="24" height="24" viewBox="0 0 24 24" fill="none" xmlns="http://www.w3.org/2000/svg">
<path d="M8.00005 15.9639C7.58 15.8955 7.17251 15.7897 6.78109 15.6501C5.79424 15.2981 2.78827 16.8522 2.06233 16.1262C1.33639 15.4003 2.89047 12.3943 2.53845 11.4075C2.2762 10.6723 2.1334 9.88042 2.1334 9.05518C2.1334 5.18918 5.2674 2.05518 9.1334 2.05518C12.6407 2.05518 15.5456 4.63462 16.0544 7.99994" stroke="#22272F" stroke-linecap="round"/>
<path d="M11 16.3972C11 19.378 13.4164 21.7944 16.3972 21.7944C17.0335 21.7944 17.644 21.6843 18.2109 21.4821C18.9718 21.2106 21.2894 22.4089 21.8492 21.8492C22.4089 21.2894 21.2106 18.9718 21.4821 18.2109C21.6843 17.644 21.7944 17.0335 21.7944 16.3972C21.7944 13.4164 19.378 11 16.3972 11C13.4164 11 11 13.4164 11 16.3972Z" stroke="#22272F"/>
<path d="M6 7H12" stroke="#22272F" stroke-linecap="round" stroke-linejoin="round"/>
<path d="M6 10H10" stroke="#22272F" stroke-linecap="round" stroke-linejoin="round"/>
</svg>
