<svg width="24" height="24" viewBox="0 0 24 24" fill="none" xmlns="http://www.w3.org/2000/svg">
<path d="M7.99999 15.9639C7.57994 15.8955 7.17245 15.7897 6.78103 15.6501C5.79418 15.2981 2.78821 16.8522 2.06227 16.1262C1.33633 15.4003 2.89041 12.3943 2.53839 11.4075C2.27614 10.6723 2.13334 9.88042 2.13334 9.05518C2.13334 5.18918 5.26734 2.05518 9.13334 2.05518C12.6406 2.05518 15.5455 4.63462 16.0543 7.99994" stroke="#22272F" stroke-width="1.5" stroke-linecap="round"/>
<path d="M11 16.3972C11 19.378 13.4164 21.7944 16.3972 21.7944C17.0335 21.7944 17.644 21.6843 18.2109 21.4821C18.9718 21.2106 21.2894 22.4089 21.8492 21.8492C22.4089 21.2894 21.2106 18.9718 21.4821 18.2109C21.6843 17.644 21.7944 17.0335 21.7944 16.3972C21.7944 13.4164 19.378 11 16.3972 11C13.4164 11 11 13.4164 11 16.3972Z" stroke="#22272F" stroke-width="1.5"/>
<path d="M6 7H12" stroke="#00AB3F" stroke-width="1.5" stroke-linecap="round" stroke-linejoin="round"/>
<path d="M6 10H10" stroke="#00AB3F" stroke-width="1.5" stroke-linecap="round" stroke-linejoin="round"/>
</svg>
