<svg width="24" height="24" viewBox="0 0 24 24" fill="none" xmlns="http://www.w3.org/2000/svg">
<path d="M11 16.3972C11 19.378 13.4164 21.7944 16.3972 21.7944C17.0335 21.7944 17.644 21.6843 18.2109 21.4821C18.9718 21.2106 21.2894 22.4089 21.8492 21.8492C22.4089 21.2894 21.2106 18.9718 21.4821 18.2109C21.6843 17.644 21.7944 17.0335 21.7944 16.3972C21.7944 13.4164 19.378 11 16.3972 11C13.4164 11 11 13.4164 11 16.3972Z" fill="#22272F"/>
<path fill-rule="evenodd" clip-rule="evenodd" d="M2.13334 9.05518C2.13334 5.18918 5.26734 2.05518 9.13334 2.05518C12.6406 2.05518 15.5455 4.63462 16.0543 7.99994C16.1025 8.30403 16.1336 8.64232 16.1413 9.00312C12.2977 9.11516 9.19321 12.1741 9.00867 15.9991C8.68628 16.0004 8.35022 15.9889 7.99999 15.9639C7.57994 15.8955 7.17245 15.7897 6.78103 15.6501C6.33701 15.4917 5.48424 15.7192 4.61431 15.9513C3.55077 16.235 2.46159 16.5256 2.06227 16.1262C1.66295 15.7269 1.95351 14.6377 2.23722 13.5742C2.46929 12.7043 2.69677 11.8515 2.53839 11.4075C2.27614 10.6723 2.13334 9.88042 2.13334 9.05518Z" fill="#22272F"/>
</svg>
