<svg width="24" height="24" viewBox="0 0 24 24" fill="none" xmlns="http://www.w3.org/2000/svg">
<path fill-rule="evenodd" clip-rule="evenodd" d="M9.5 3.25C7.15279 3.25 5.25 5.15279 5.25 7.5C5.25 9.84721 7.15279 11.75 9.5 11.75C11.8472 11.75 13.75 9.84721 13.75 7.5C13.75 5.15279 11.8472 3.25 9.5 3.25Z" fill="black" fill-opacity="0.32"/>
<path d="M16 10C17.1046 10 18 8.88071 18 7.5C18 6.11929 17.1046 5 16 5" stroke="#22272F" stroke-width="1.5" stroke-linecap="round"/>
<path fill-rule="evenodd" clip-rule="evenodd" d="M8.12434 13.6427C6.01455 13.4153 3.95153 14.5425 3.10195 16.5248L2.42813 18.0971C1.713 19.7657 3.1583 21.5297 4.91142 21.2504C6.50589 20.9963 8.35883 20.7499 9.50002 20.7499C10.6412 20.7499 12.4941 20.9963 14.0886 21.2504C15.8417 21.5297 17.287 19.7657 16.5719 18.0971L15.8981 16.5248C15.0485 14.5425 12.9855 13.4153 10.8757 13.6427C10.2695 13.708 9.76632 13.7499 9.50002 13.7499C9.23372 13.7499 8.73057 13.708 8.12434 13.6427Z" fill="black" fill-opacity="0.32"/>
<path d="M17 14.2666V14.2666C18.1812 14.1203 19.326 14.7606 19.7948 15.8546L20.8825 18.3926C21.3571 19.5 20.3961 20.6993 19.2062 20.5097C19.138 20.4989 19.0693 20.488 19 20.4772" stroke="#22272F" stroke-width="1.5" stroke-linecap="round"/>
</svg>
