<svg width="24" height="24" viewBox="0 0 24 24" fill="none" xmlns="http://www.w3.org/2000/svg">
<circle cx="9.5" cy="7.5" r="3.5" stroke="#22272F"/>
<path d="M16 10C17.1046 10 18 8.88071 18 7.5C18 6.11929 17.1046 5 16 5" stroke="#22272F" stroke-linecap="round"/>
<path d="M3.79129 16.8203C4.50429 15.1567 6.24437 14.1945 8.04395 14.3885C8.64567 14.4533 9.18745 14.5 9.5 14.5C9.81255 14.5 10.3543 14.4533 10.956 14.3885C12.7556 14.1945 14.4957 15.1567 15.2087 16.8203L15.8825 18.3926C16.3571 19.5 15.3965 20.6994 14.2066 20.5098C12.6174 20.2566 10.7088 20 9.5 20C8.29121 20 6.38264 20.2566 4.79339 20.5098C3.60354 20.6994 2.64286 19.5 3.11747 18.3926L3.79129 16.8203Z" stroke="#22272F"/>
<path d="M17 14.2666V14.2666C18.1812 14.1203 19.326 14.7606 19.7948 15.8546L20.8825 18.3926C21.3571 19.5 20.3961 20.6993 19.2062 20.5097C19.138 20.4989 19.0693 20.488 19 20.4772" stroke="#22272F" stroke-linecap="round"/>
</svg>
