<svg width="24" height="24" viewBox="0 0 24 24" fill="none" xmlns="http://www.w3.org/2000/svg">
<path fill-rule="evenodd" clip-rule="evenodd" d="M2.65396 5.27606C2 6.55953 2 8.23969 2 11.6V12.4C2 15.7603 2 17.4405 2.65396 18.7239C3.2292 19.8529 4.14708 20.7708 5.27606 21.346C6.55953 22 8.23969 22 11.6 22H12.4C15.7603 22 17.4405 22 18.7239 21.346C19.8529 20.7708 20.7708 19.8529 21.346 18.7239C22 17.4405 22 15.7603 22 12.4V11.6C22 8.23969 22 6.55953 21.346 5.27606C20.7708 4.14708 19.8529 3.2292 18.7239 2.65396C17.4405 2 15.7603 2 12.4 2H11.6C8.23969 2 6.55953 2 5.27606 2.65396C4.14708 3.2292 3.2292 4.14708 2.65396 5.27606ZM11.76 5.25H11.7273H11.7273C10.7469 5.24999 9.96538 5.24999 9.33445 5.30154C8.68777 5.35437 8.13353 5.46508 7.62514 5.72412C6.80664 6.14117 6.14117 6.80664 5.72412 7.62514C5.46508 8.13353 5.35437 8.68777 5.30154 9.33445C5.24999 9.96539 5.24999 10.7469 5.25 11.7273V11.76V12.24V12.2727C5.24999 13.2531 5.24999 14.0346 5.30154 14.6655C5.35437 15.3122 5.46508 15.8665 5.72412 16.3749C6.14117 17.1934 6.80664 17.8588 7.62514 18.2759C8.13353 18.5349 8.68777 18.6456 9.33445 18.6985C9.96538 18.75 10.7469 18.75 11.7273 18.75H11.76H12.24H12.2727C13.2531 18.75 14.0346 18.75 14.6655 18.6985C15.3122 18.6456 15.8665 18.5349 16.3749 18.2759C17.1934 17.8588 17.8588 17.1934 18.2759 16.3749C18.5349 15.8665 18.6456 15.3122 18.6985 14.6655C18.75 14.0346 18.75 13.2531 18.75 12.2727V12.24V12C18.75 11.5858 18.4142 11.25 18 11.25C17.5858 11.25 17.25 11.5858 17.25 12V12.24C17.25 13.2605 17.2494 13.9807 17.2034 14.5434C17.1582 15.0973 17.0727 15.4322 16.9394 15.6939C16.6661 16.2301 16.2301 16.6661 15.6939 16.9394C15.4322 17.0727 15.0973 17.1582 14.5434 17.2034C13.9807 17.2494 13.2605 17.25 12.24 17.25H11.76C10.7395 17.25 10.0193 17.2494 9.4566 17.2034C8.90267 17.1582 8.56782 17.0727 8.30613 16.9394L7.96563 17.6076L8.30613 16.9394C7.76987 16.6661 7.33387 16.2301 7.06063 15.6939C6.92729 15.4322 6.84181 15.0973 6.79656 14.5434C6.75058 13.9807 6.75 13.2605 6.75 12.24V11.76C6.75 10.7395 6.75058 10.0193 6.79656 9.4566C6.84181 8.90267 6.92729 8.56782 7.06063 8.30613C7.33387 7.76987 7.76987 7.33387 8.30613 7.06063C8.56782 6.92729 8.90267 6.84181 9.4566 6.79656C10.0193 6.75058 10.7395 6.75 11.76 6.75H12C12.4142 6.75 12.75 6.41421 12.75 6C12.75 5.58579 12.4142 5.25 12 5.25H11.76ZM15 5.25C14.5858 5.25 14.25 5.58579 14.25 6C14.25 6.41421 14.5858 6.75 15 6.75H16.1893L10.8697 12.0697C10.5768 12.3626 10.5768 12.8374 10.8697 13.1303C11.1626 13.4232 11.6374 13.4232 11.9303 13.1303L17.25 7.81066V9C17.25 9.41421 17.5858 9.75 18 9.75C18.4142 9.75 18.75 9.41421 18.75 9V6C18.75 5.58579 18.4142 5.25 18 5.25H15Z" fill="#22272F"/>
</svg>
