<svg width="24" height="24" viewBox="0 0 24 24" fill="none" xmlns="http://www.w3.org/2000/svg">
<path fill-rule="evenodd" clip-rule="evenodd" d="M4.75 12C4.75 7.99594 7.99594 4.75 12 4.75C16.0041 4.75 19.25 7.99594 19.25 12C19.25 12.4142 19.5858 12.75 20 12.75C20.4142 12.75 20.75 12.4142 20.75 12C20.75 7.16751 16.8325 3.25 12 3.25C7.16812 3.25 3.25099 7.16652 3.25 11.9982C3.25 11.9988 3.25 11.9994 3.25 12.0001C3.25 12.4143 3.58579 12.7501 4 12.7501C4.31067 12.75 4.57721 12.5611 4.69106 12.2919C4.72902 12.2022 4.75 12.1036 4.75 12ZM12.0001 20.75C12.4143 20.75 12.7501 20.4142 12.7501 20C12.7501 19.5858 12.4142 19.25 12 19.25C11.5857 19.25 11.2499 19.5858 11.2499 20C11.2499 20.4142 11.5859 20.75 12.0001 20.75ZM8.65046 20.0858C9.03308 20.2444 9.47188 20.0629 9.63054 19.6803C9.7892 19.2976 9.60756 18.8588 9.22494 18.7001C8.84232 18.5415 8.40352 18.723 8.24485 19.1056C8.08619 19.4883 8.26784 19.9271 8.65046 20.0858ZM15.6244 18.2806C15.2659 18.488 15.1433 18.9468 15.3507 19.3053C15.5581 19.6639 16.017 19.7864 16.3755 19.5789C16.7341 19.3715 16.8566 18.9127 16.6492 18.5542C16.4418 18.1957 15.9829 18.0732 15.6244 18.2806ZM5.81285 18.1872C6.10575 18.4801 6.58062 18.4801 6.87351 18.1872C7.16641 17.8943 7.16634 17.4194 6.87344 17.1265C6.58055 16.8336 6.10567 16.8336 5.81278 17.1265C5.51989 17.4194 5.51996 17.8943 5.81285 18.1872ZM3.91427 15.3496C4.07294 15.7323 4.51174 15.9138 4.89436 15.7551C5.27698 15.5965 5.45849 15.1576 5.29982 14.775C5.14116 14.3923 4.70236 14.2108 4.31974 14.3695C3.93712 14.5281 3.75561 14.967 3.91427 15.3496Z" fill="#22272F" fill-opacity="0.12"/>
<path d="M22 13L18 13L20 16L22 13Z" fill="#22272F" stroke="#22272F" stroke-width="1.5" stroke-linecap="round" stroke-linejoin="round"/>
</svg>
