<svg width="24" height="24" viewBox="0 0 24 24" fill="none" xmlns="http://www.w3.org/2000/svg">
<path fill-rule="evenodd" clip-rule="evenodd" d="M2.65396 5.27606C2 6.55953 2 8.23969 2 11.6V12.4C2 15.7603 2 17.4405 2.65396 18.7239C3.2292 19.8529 4.14708 20.7708 5.27606 21.346C6.55953 22 8.23969 22 11.6 22H12.4C15.7603 22 17.4405 22 18.7239 21.346C19.8529 20.7708 20.7708 19.8529 21.346 18.7239C22 17.4405 22 15.7603 22 12.4V11.6C22 8.23969 22 6.55953 21.346 5.27606C20.7708 4.14708 19.8529 3.2292 18.7239 2.65396C17.4405 2 15.7603 2 12.4 2H11.6C8.23969 2 6.55953 2 5.27606 2.65396C4.14708 3.2292 3.2292 4.14708 2.65396 5.27606ZM12 7.75C9.65279 7.75 7.75 9.65279 7.75 12C7.75 12.0518 7.74475 12.1023 7.73476 12.1512C7.66483 12.4929 7.36244 12.75 7.00001 12.75C6.58579 12.75 6.25 12.4143 6.25 12.0001V12C6.25 8.82436 8.82436 6.25 12 6.25C14.9214 6.25 17.334 8.42873 17.7015 11.25H18.5C18.8033 11.25 19.0768 11.4327 19.1929 11.713C19.309 11.9932 19.2448 12.3158 19.0303 12.5303L17.5303 14.0303C17.2374 14.3232 16.7626 14.3232 16.4697 14.0303L14.9697 12.5303C14.7552 12.3158 14.691 11.9932 14.8071 11.713C14.9232 11.4327 15.1967 11.25 15.5 11.25H16.184C15.8298 9.26049 14.0913 7.75 12 7.75ZM13.0834 17C13.0834 17.4142 12.7476 17.75 12.3334 17.75C11.9192 17.75 11.5833 17.4142 11.5833 17C11.5833 16.5858 11.9191 16.25 12.3333 16.25C12.7475 16.25 13.0834 16.5858 13.0834 17ZM10.3936 16.7136C10.2009 17.0802 9.74751 17.2213 9.38083 17.0287C9.01415 16.836 8.87299 16.3825 9.06566 16.0158C9.25832 15.6491 9.71176 15.5081 10.0784 15.7007C10.4451 15.8934 10.5863 16.3469 10.3936 16.7136ZM14.3407 16.6886C14.1432 16.3245 14.2783 15.8693 14.6424 15.6718C15.0065 15.4744 15.4618 15.6094 15.6593 15.9735C15.8568 16.3377 15.7217 16.7929 15.3575 16.9904C14.9934 17.1878 14.5381 17.0528 14.3407 16.6886ZM8.15548 15.1942C7.80622 15.4169 7.34256 15.3143 7.11987 14.965C6.89718 14.6157 6.99973 14.152 7.34899 13.9293C7.69825 13.7066 8.16191 13.8092 8.3846 14.1585C8.60729 14.5077 8.50473 14.9715 8.15548 15.1942Z" fill="#22272F"/>
</svg>
