<svg width="24" height="24" viewBox="0 0 24 24" fill="none" xmlns="http://www.w3.org/2000/svg">
<rect x="2" y="2" width="20" height="20" rx="6" fill="black" fill-opacity="0.32"/>
<path fill-rule="evenodd" clip-rule="evenodd" d="M7.75 12C7.75 9.65279 9.65279 7.75 12 7.75C14.0913 7.75 15.8298 9.26049 16.184 11.25H15.5C15.1967 11.25 14.9232 11.4327 14.8071 11.713C14.691 11.9932 14.7552 12.3158 14.9697 12.5303L16.4697 14.0303C16.7626 14.3232 17.2374 14.3232 17.5303 14.0303L19.0303 12.5303C19.2448 12.3158 19.309 11.9932 19.1929 11.713C19.0768 11.4327 18.8033 11.25 18.5 11.25H17.7015C17.334 8.42873 14.9214 6.25 12 6.25C8.82436 6.25 6.25 8.82436 6.25 12V12.0001C6.25 12.4143 6.58579 12.75 7.00001 12.75C7.36244 12.75 7.66483 12.4929 7.73476 12.1512C7.74475 12.1023 7.75 12.0518 7.75 12ZM12.3334 17.75C12.7476 17.75 13.0834 17.4142 13.0834 17C13.0834 16.5858 12.7475 16.25 12.3333 16.25C11.9191 16.25 11.5833 16.5858 11.5833 17C11.5833 17.4142 11.9192 17.75 12.3334 17.75ZM9.38083 17.0287C9.74751 17.2213 10.2009 17.0802 10.3936 16.7136C10.5863 16.3469 10.4451 15.8934 10.0784 15.7007C9.71176 15.5081 9.25832 15.6491 9.06566 16.0158C8.87299 16.3825 9.01415 16.836 9.38083 17.0287ZM14.6424 15.6718C14.2783 15.8693 14.1432 16.3245 14.3407 16.6886C14.5381 17.0528 14.9934 17.1878 15.3575 16.9904C15.7217 16.7929 15.8568 16.3377 15.6593 15.9735C15.4618 15.6094 15.0065 15.4744 14.6424 15.6718ZM7.11987 14.965C7.34256 15.3143 7.80622 15.4169 8.15548 15.1942C8.50473 14.9715 8.60729 14.5077 8.3846 14.1585C8.16191 13.8092 7.69825 13.7066 7.34899 13.9293C6.99973 14.152 6.89718 14.6157 7.11987 14.965Z" fill="#22272F"/>
</svg>
