<svg width="24" height="24" viewBox="0 0 24 24" fill="none" xmlns="http://www.w3.org/2000/svg">
<path d="M18.0721 8.64742L17.1104 8.37343L17.1104 8.37343L18.0721 8.64742ZM15.8161 16.5664L16.7778 16.8404L16.7778 16.8404L15.8161 16.5664ZM7.27546 8.0258L7.54945 8.98753L7.54945 8.98753L7.27546 8.0258ZM15.1945 5.76973L14.9205 4.808L14.9205 4.808L15.1945 5.76973ZM10.5994 16.0891L11.5819 16.2752L11.5819 16.2752L10.5994 16.0891ZM7.75275 13.2425L7.56665 12.26L7.56665 12.26L7.75275 13.2425ZM10.5992 16.5196L9.71606 16.9887L9.71607 16.9887L10.5992 16.5196ZM10.5587 16.385L9.56354 16.4831L9.56354 16.4831L10.5587 16.385ZM4.97223 8.97694L5.74633 9.61L5.74633 9.61L4.97223 8.97694ZM4.63249 10.1615L5.623 10.0241L5.623 10.0241L4.63249 10.1615ZM14.8649 18.8696L14.2319 18.0955L14.2319 18.0956L14.8649 18.8696ZM13.6803 19.2094L13.8177 18.2189L13.8177 18.2189L13.6803 19.2094ZM7.45689 13.2832L7.35878 14.2783L7.3588 14.2783L7.45689 13.2832ZM7.32228 13.2427L6.85314 14.1258L6.85316 14.1258L7.32228 13.2427ZM18.4711 6.21518L19.4097 5.87026L19.4097 5.87026L18.4711 6.21518ZM17.6267 5.3708L17.9716 4.43217L17.9716 4.43217L17.6267 5.3708ZM14.521 10.7351C14.9116 10.3445 14.9116 9.71136 14.521 9.32084C14.1305 8.93031 13.4974 8.93031 13.1068 9.32084L14.521 10.7351ZM17.1104 8.37343L14.8543 16.2924L16.7778 16.8404L19.0339 8.92141L17.1104 8.37343ZM7.54945 8.98753L15.4685 6.73146L14.9205 4.808L7.00147 7.06406L7.54945 8.98753ZM12.4883 17.0165L11.4724 16.0006L10.0582 17.4148L11.0741 18.4307L12.4883 17.0165ZM11.5819 16.2752C11.6977 15.664 11.8387 14.205 10.7378 13.1041L9.32357 14.5183C9.68838 14.8831 9.70293 15.4484 9.61682 15.903L11.5819 16.2752ZM10.7378 13.1041C9.63683 12.0032 8.17786 12.1442 7.56665 12.26L7.93886 14.2251C8.39347 14.1389 8.95875 14.1535 9.32357 14.5183L10.7378 13.1041ZM7.84129 12.3695L6.82538 11.3536L5.41117 12.7678L6.42708 13.7837L7.84129 12.3695ZM11.4724 16.0006C11.4479 15.9761 11.4309 15.9591 11.4169 15.9448C11.4102 15.938 11.4054 15.933 11.402 15.9294C11.3985 15.9257 11.3971 15.9242 11.3972 15.9243C11.3973 15.9244 11.3997 15.9271 11.4037 15.9318C11.4076 15.9365 11.4139 15.9442 11.4216 15.9544C11.4372 15.9752 11.4595 16.0075 11.4823 16.0505L9.71607 16.9887C9.82946 17.2022 10.0202 17.3768 10.0582 17.4148L11.4724 16.0006ZM9.61682 15.903C9.60309 15.9755 9.58704 16.0592 9.57643 16.1307C9.56703 16.194 9.54829 16.3283 9.56354 16.4831L11.5539 16.2869C11.5567 16.3158 11.5576 16.3406 11.5577 16.3601C11.5578 16.3795 11.557 16.3949 11.5563 16.4052C11.5557 16.4156 11.5549 16.4226 11.5546 16.4253C11.5543 16.428 11.5542 16.428 11.5547 16.4245C11.5552 16.421 11.5561 16.4153 11.5576 16.4067C11.5591 16.3981 11.5609 16.3877 11.5632 16.3747C11.5681 16.3481 11.574 16.3167 11.5819 16.2752L9.61682 15.903ZM11.4823 16.0505C11.4881 16.0614 11.5102 16.1043 11.529 16.1669C11.5477 16.229 11.5529 16.2763 11.5539 16.2869L9.56354 16.4831C9.5816 16.6663 9.62847 16.8238 9.71606 16.9887L11.4823 16.0505ZM7.00147 7.06406C6.357 7.24767 5.80838 7.40297 5.38585 7.56536C4.96706 7.72632 4.52307 7.94654 4.19813 8.34387L5.74633 9.61C5.73589 9.62277 5.78061 9.55627 6.10336 9.43223C6.42236 9.30962 6.8681 9.18164 7.54945 8.98753L7.00147 7.06406ZM6.82538 11.3536C6.33782 10.866 6.02389 10.5505 5.81663 10.2995C5.60724 10.046 5.61751 9.98455 5.623 10.0241L3.64198 10.299C3.71404 10.8185 3.99414 11.2335 4.27446 11.573C4.55691 11.9151 4.95259 12.3092 5.41117 12.7678L6.82538 11.3536ZM4.19813 8.34387C3.75264 8.88861 3.54457 9.59679 3.64198 10.299L5.623 10.0241C5.60428 9.88913 5.64319 9.73612 5.74633 9.61L4.19813 8.34387ZM14.8543 16.2924C14.6602 16.9738 14.5323 17.4195 14.4096 17.7385C14.2856 18.0613 14.2191 18.106 14.2319 18.0955L15.498 19.6437C15.8953 19.3188 16.1156 18.8748 16.2765 18.456C16.4389 18.0335 16.5942 17.4849 16.7778 16.8404L14.8543 16.2924ZM11.0741 18.4307C11.5327 18.8893 11.9268 19.285 12.2689 19.5674C12.6083 19.8477 13.0234 20.1278 13.5429 20.1999L13.8177 18.2189C13.8573 18.2244 13.7959 18.2346 13.5423 18.0252C13.2913 17.818 12.9759 17.5041 12.4883 17.0165L11.0741 18.4307ZM14.2319 18.0956C14.1058 18.1987 13.9527 18.2376 13.8177 18.2189L13.5429 20.1999C14.2451 20.2973 14.9533 20.0892 15.498 19.6437L14.2319 18.0956ZM7.56665 12.26C7.52517 12.2679 7.49383 12.2738 7.46713 12.2786C7.4542 12.281 7.44376 12.2828 7.43518 12.2843C7.42657 12.2857 7.42088 12.2866 7.41741 12.2871C7.41389 12.2877 7.4139 12.2876 7.41663 12.2873C7.41932 12.287 7.42632 12.2862 7.43666 12.2855C7.44701 12.2849 7.46243 12.2841 7.48181 12.2842C7.50129 12.2843 7.52607 12.2851 7.55498 12.288L7.3588 14.2783C7.51354 14.2936 7.64788 14.2749 7.71119 14.2655C7.78265 14.2548 7.86638 14.2388 7.93886 14.2251L7.56665 12.26ZM6.42708 13.7837C6.4651 13.8217 6.63969 14.0124 6.85314 14.1258L7.79142 12.3596C7.83434 12.3824 7.86671 12.4047 7.88747 12.4203C7.89768 12.428 7.90533 12.4342 7.91008 12.4382C7.91481 12.4422 7.91745 12.4446 7.91756 12.4447C7.91768 12.4448 7.91615 12.4434 7.91249 12.4399C7.90884 12.4364 7.90388 12.4316 7.8971 12.425C7.88277 12.4109 7.86579 12.394 7.84129 12.3695L6.42708 13.7837ZM7.555 12.288C7.56558 12.289 7.61283 12.2942 7.67497 12.3128C7.73754 12.3317 7.78048 12.3538 7.7914 12.3596L6.85316 14.1258C7.01805 14.2134 7.1756 14.2603 7.35878 14.2783L7.555 12.288ZM19.0339 8.92141C19.2167 8.2796 19.3735 7.73285 19.4573 7.2914C19.5396 6.85811 19.5889 6.35779 19.4097 5.87026L17.5325 6.5601C17.5189 6.52323 17.5569 6.57849 17.4924 6.91839C17.4294 7.25014 17.3039 7.69418 17.1104 8.37343L19.0339 8.92141ZM15.4685 6.73146C16.1477 6.53795 16.5917 6.41246 16.9235 6.34948C17.2634 6.28496 17.3187 6.32298 17.2818 6.30943L17.9716 4.43217C17.4841 4.25301 16.9838 4.30232 16.5505 4.38457C16.109 4.46838 15.5623 4.62515 14.9205 4.808L15.4685 6.73146ZM19.4097 5.87026C19.164 5.20174 18.6401 4.67783 17.9716 4.43217L17.2818 6.30943C17.3994 6.35267 17.4892 6.44243 17.5325 6.5601L19.4097 5.87026ZM10.7378 14.5183L14.521 10.7351L13.1068 9.32084L9.32357 13.1041L10.7378 14.5183Z" fill="#22272F"/>
</svg>
