<svg width="24" height="24" viewBox="0 0 24 24" fill="none" xmlns="http://www.w3.org/2000/svg">
<path d="M18.0721 8.64742L17.5913 8.51043L17.5913 8.51043L18.0721 8.64742ZM15.8161 16.5664L16.2969 16.7034L16.2969 16.7034L15.8161 16.5664ZM7.27546 8.0258L7.41245 8.50666L7.41245 8.50666L7.27546 8.0258ZM15.1945 5.76973L15.0575 5.28887L15.0575 5.28887L15.1945 5.76973ZM10.5994 16.0891L11.0906 16.1822L11.0906 16.1822L10.5994 16.0891ZM7.75275 13.2425L7.6597 12.7513L7.6597 12.7513L7.75275 13.2425ZM10.5992 16.5196L10.1576 16.7542L10.1576 16.7542L10.5992 16.5196ZM10.5587 16.385L10.0611 16.434L10.0611 16.434L10.5587 16.385ZM4.97223 8.97694L5.35928 9.29347L5.35928 9.29347L4.97223 8.97694ZM4.63249 10.1615L5.12775 10.0928L5.12775 10.0928L4.63249 10.1615ZM14.8649 18.8696L14.5484 18.4826L14.5484 18.4826L14.8649 18.8696ZM13.6803 19.2094L13.749 18.7141L13.749 18.7141L13.6803 19.2094ZM7.45689 13.2832L7.40783 13.7807L7.40785 13.7807L7.45689 13.2832ZM7.32228 13.2427L7.08771 13.6843L7.08772 13.6843L7.32228 13.2427ZM18.4711 6.21518L18.9404 6.04272L18.9404 6.04272L18.4711 6.21518ZM17.6267 5.3708L17.7992 4.90148L17.7992 4.90148L17.6267 5.3708ZM14.1675 10.3815C14.3627 10.1862 14.3627 9.86965 14.1675 9.67439C13.9722 9.47913 13.6556 9.47913 13.4604 9.67439L14.1675 10.3815ZM17.5913 8.51043L15.3352 16.4294L16.2969 16.7034L18.553 8.78442L17.5913 8.51043ZM7.41245 8.50666L15.3315 6.2506L15.0575 5.28887L7.13846 7.54493L7.41245 8.50666ZM12.1348 17.3701L11.1189 16.3541L10.4117 17.0612L11.4277 18.0772L12.1348 17.3701ZM11.0906 16.1822C11.199 15.6101 11.3011 14.3746 10.3842 13.4577L9.67712 14.1648C10.226 14.7136 10.2016 15.5023 10.1081 15.9961L11.0906 16.1822ZM10.3842 13.4577C9.46731 12.5407 8.23176 12.6429 7.6597 12.7513L7.84581 13.7338C8.33957 13.6403 9.12827 13.6159 9.67712 14.1648L10.3842 13.4577ZM7.48774 12.723L6.47183 11.7071L5.76472 12.4142L6.78063 13.4301L7.48774 12.723ZM11.1189 16.3541C11.0948 16.3301 11.0761 16.3113 11.06 16.295C11.044 16.2786 11.0337 16.2678 11.0267 16.2601C11.0113 16.2431 11.0249 16.2551 11.0408 16.285L10.1576 16.7542C10.2268 16.8843 10.3457 16.9952 10.4117 17.0612L11.1189 16.3541ZM10.1081 15.9961C10.0936 16.0727 10.0798 16.1449 10.071 16.2041C10.0628 16.2593 10.0522 16.3433 10.0611 16.434L11.0563 16.3359C11.0584 16.3576 11.0575 16.3712 11.0574 16.3721C11.0574 16.3728 11.0578 16.3671 11.0602 16.351C11.0653 16.3161 11.0745 16.2671 11.0906 16.1822L10.1081 15.9961ZM11.0408 16.285C11.0373 16.2784 11.0439 16.29 11.0502 16.3109C11.0564 16.3316 11.0571 16.3444 11.0563 16.3359L10.0611 16.434C10.0729 16.5532 10.101 16.6476 10.1576 16.7542L11.0408 16.285ZM7.13846 7.54493C6.48478 7.73116 5.96187 7.87963 5.56523 8.03208C5.17045 8.18381 4.82628 8.3656 4.58518 8.6604L5.35928 9.29347C5.43269 9.20371 5.57722 9.09878 5.92398 8.96551C6.26887 8.83296 6.74032 8.69815 7.41245 8.50666L7.13846 7.54493ZM6.47183 11.7071C5.99151 11.2268 5.65715 10.8917 5.43109 10.6179C5.20396 10.3429 5.14165 10.193 5.12775 10.0928L4.13723 10.2303C4.18991 10.61 4.39742 10.9366 4.66 11.2546C4.92366 11.5739 5.2989 11.9484 5.76472 12.4142L6.47183 11.7071ZM4.58518 8.6604C4.22528 9.10049 4.05949 9.66987 4.13723 10.2303L5.12775 10.0928C5.08935 9.81605 5.17055 9.52425 5.35928 9.29347L4.58518 8.6604ZM15.3352 16.4294C15.1437 17.1016 15.0089 17.573 14.8764 17.9179C14.7431 18.2647 14.6382 18.4092 14.5484 18.4826L15.1815 19.2567C15.4763 19.0156 15.6581 18.6714 15.8098 18.2767C15.9622 17.88 16.1107 17.3571 16.2969 16.7034L15.3352 16.4294ZM11.4277 18.0772C11.8935 18.543 12.268 18.9182 12.5872 19.1819C12.9052 19.4445 13.2319 19.652 13.6116 19.7046L13.749 18.7141C13.6489 18.7002 13.499 18.6379 13.224 18.4108C12.9502 18.1847 12.6151 17.8504 12.1348 17.3701L11.4277 18.0772ZM14.5484 18.4826C14.3176 18.6713 14.0258 18.7525 13.749 18.7141L13.6116 19.7046C14.172 19.7824 14.7414 19.6166 15.1815 19.2567L14.5484 18.4826ZM7.6597 12.7513C7.57476 12.7674 7.52575 12.7765 7.49085 12.7817C7.47476 12.7841 7.46908 12.7845 7.46982 12.7844C7.47063 12.7844 7.48432 12.7834 7.50594 12.7856L7.40785 13.7807C7.49859 13.7897 7.58255 13.7791 7.63775 13.7709C7.69701 13.7621 7.76918 13.7483 7.84581 13.7338L7.6597 12.7513ZM6.78063 13.4301C6.8467 13.4962 6.95753 13.6151 7.08771 13.6843L7.55685 12.8011C7.58675 12.817 7.5988 12.8306 7.58175 12.8151C7.57411 12.8082 7.56326 12.7979 7.54689 12.7819C7.53054 12.7658 7.51176 12.747 7.48774 12.723L6.78063 13.4301ZM7.50595 12.7856C7.49747 12.7847 7.51031 12.7855 7.53101 12.7917C7.55192 12.798 7.56344 12.8046 7.55684 12.8011L7.08772 13.6843C7.19429 13.7409 7.28872 13.769 7.40783 13.7807L7.50595 12.7856ZM18.553 8.78442C18.7385 8.13325 18.8875 7.61217 18.9661 7.19815C19.0439 6.78821 19.0714 6.39915 18.9404 6.04272L18.0018 6.38764C18.0364 6.48187 18.0526 6.6484 17.9836 7.01165C17.9154 7.37082 17.7821 7.84054 17.5913 8.51043L18.553 8.78442ZM15.3315 6.2506C16.0013 6.05975 16.4711 5.92644 16.8302 5.85826C17.1935 5.7893 17.36 5.80549 17.4542 5.84011L17.7992 4.90148C17.4427 4.7705 17.0537 4.79798 16.6437 4.8758C16.2297 4.9544 15.7086 5.10335 15.0575 5.28887L15.3315 6.2506ZM18.9404 6.04272C18.7453 5.51191 18.33 5.09654 17.7992 4.90148L17.4542 5.84011C17.7096 5.93396 17.9079 6.13226 18.0018 6.38764L18.9404 6.04272ZM10.3842 14.1648L14.1675 10.3815L13.4604 9.67439L9.67712 13.4577L10.3842 14.1648Z" fill="#22272F"/>
</svg>
