<svg width="24" height="24" viewBox="0 0 24 24" fill="none" xmlns="http://www.w3.org/2000/svg">
<path fill-rule="evenodd" clip-rule="evenodd" d="M18.0721 8.64738L15.8161 16.5664C15.4383 17.8922 15.2495 18.5551 14.8649 18.8696C14.5295 19.1439 14.0989 19.2674 13.6803 19.2094C13.2004 19.1428 12.7273 18.6697 11.7812 17.7236L11.7812 17.7236L10.7653 16.7077L10.7653 16.7076C10.6711 16.6135 10.6241 16.5665 10.5992 16.5196C10.5735 16.4713 10.5641 16.44 10.5587 16.385C10.5534 16.3314 10.5687 16.2507 10.5993 16.0891C10.6831 15.6467 10.741 14.874 10.3388 14.205C10.3546 14.1926 10.3697 14.1792 10.3842 14.1647L14.1675 10.3815C14.3627 10.1862 14.3627 9.86961 14.1675 9.67435C13.9722 9.47909 13.6556 9.47909 13.4604 9.67435L9.6771 13.4576C9.66261 13.4721 9.6492 13.4873 9.63686 13.503C8.96785 13.1009 8.19515 13.1587 7.75273 13.2425C7.59116 13.2731 7.51037 13.2884 7.45687 13.2831C7.40183 13.2777 7.37051 13.2683 7.32226 13.2427C7.27535 13.2177 7.22829 13.1707 7.13417 13.0766L7.13416 13.0765L6.11825 12.0606L6.11824 12.0606C5.17211 11.1145 4.69904 10.6414 4.63247 10.1615C4.5744 9.74292 4.69789 9.31233 4.97221 8.9769C5.28671 8.59233 5.94962 8.40348 7.27543 8.02576L15.1944 5.7697C16.5155 5.39334 17.176 5.20516 17.6267 5.37076C18.0198 5.51521 18.3266 5.82205 18.4711 6.21514C18.6367 6.6658 18.4485 7.32633 18.0721 8.64738Z" fill="#22272F"/>
</svg>
