<svg width="24" height="24" viewBox="0 0 24 24" fill="none" xmlns="http://www.w3.org/2000/svg">
<path d="M9.46967 13.2529C9.17678 13.5458 9.17678 14.0207 9.46967 14.3136C9.76257 14.6065 10.2374 14.6065 10.5303 14.3136L9.46967 13.2529ZM14.3136 10.5303C14.6065 10.2374 14.6065 9.76256 14.3136 9.46967C14.0207 9.17678 13.5458 9.17678 13.2529 9.46967L14.3136 10.5303ZM10.5303 14.3136L14.3136 10.5303L13.2529 9.46967L9.46967 13.2529L10.5303 14.3136Z" fill="#00AB3F"/>
<path d="M18.0721 8.64742L17.3508 8.44193L17.3508 8.44193L18.0721 8.64742ZM15.8161 16.5664L16.5374 16.7719L16.5374 16.7719L15.8161 16.5664ZM7.27546 8.0258L7.48095 8.7471L7.48095 8.7471L7.27546 8.0258ZM15.1945 5.76973L14.989 5.04843L14.989 5.04843L15.1945 5.76973ZM10.5994 16.0891L11.3362 16.2287L11.3362 16.2287L10.5994 16.0891ZM7.75275 13.2425L7.61318 12.5056L7.61318 12.5056L7.75275 13.2425ZM10.5992 16.5196L9.93684 16.8714L9.93685 16.8714L10.5992 16.5196ZM10.5587 16.385L9.81234 16.4586L9.81234 16.4586L10.5587 16.385ZM4.97223 8.97694L5.5528 9.45174L5.5528 9.45174L4.97223 8.97694ZM4.63249 10.1615L5.37538 10.0585L5.37538 10.0585L4.63249 10.1615ZM14.8649 18.8696L14.3901 18.2891L14.3901 18.2891L14.8649 18.8696ZM13.6803 19.2094L13.7834 18.4665L13.7834 18.4665L13.6803 19.2094ZM7.45689 13.2832L7.38331 14.0295L7.38332 14.0295L7.45689 13.2832ZM7.32228 13.2427L6.97043 13.905L6.97044 13.905L7.32228 13.2427ZM18.4711 6.21518L19.1751 5.95649L19.1751 5.95649L18.4711 6.21518ZM17.6267 5.3708L17.8854 4.66682L17.8854 4.66682L17.6267 5.3708ZM17.3508 8.44193L15.0948 16.3609L16.5374 16.7719L18.7934 8.85291L17.3508 8.44193ZM7.48095 8.7471L15.4 6.49103L14.989 5.04843L7.06997 7.3045L7.48095 8.7471ZM12.3115 17.1933L11.2956 16.1774L10.235 17.238L11.2509 18.2539L12.3115 17.1933ZM11.3362 16.2287C11.4483 15.6371 11.5699 14.2898 10.561 13.2809L9.50034 14.3415C9.95717 14.7984 9.95227 15.4754 9.86245 15.9495L11.3362 16.2287ZM10.561 13.2809C9.55207 12.2719 8.20481 12.3936 7.61318 12.5056L7.89233 13.9794C8.36652 13.8896 9.04351 13.8847 9.50034 14.3415L10.561 13.2809ZM7.66452 12.5462L6.6486 11.5303L5.58794 12.591L6.60386 13.6069L7.66452 12.5462ZM11.2956 16.1774C11.2714 16.1531 11.2535 16.1352 11.2384 16.1199C11.2234 16.1045 11.2157 16.0963 11.212 16.0922C11.2082 16.0881 11.2131 16.0931 11.2218 16.1047C11.2311 16.1171 11.246 16.1385 11.2615 16.1677L9.93685 16.8714C10.0281 17.0433 10.1829 17.186 10.235 17.238L11.2956 16.1774ZM9.86245 15.9495C9.84833 16.0241 9.83342 16.102 9.82372 16.1674C9.81492 16.2267 9.80024 16.3358 9.81234 16.4586L11.3051 16.3114C11.309 16.3505 11.3076 16.3786 11.3069 16.3886C11.3062 16.3986 11.3056 16.4001 11.3074 16.3877C11.3092 16.3759 11.3122 16.358 11.3173 16.3301C11.3223 16.3023 11.3284 16.2699 11.3362 16.2287L9.86245 15.9495ZM11.2615 16.1678C11.2627 16.1699 11.2771 16.1972 11.2896 16.2389C11.3021 16.2803 11.305 16.3104 11.3051 16.3114L9.81234 16.4586C9.82724 16.6097 9.86474 16.7357 9.93684 16.8714L11.2615 16.1678ZM7.06997 7.3045C6.42089 7.48941 5.88513 7.6413 5.47554 7.79872C5.06875 7.95506 4.67468 8.15607 4.39166 8.50214L5.5528 9.45174C5.58429 9.41324 5.67892 9.32753 6.01367 9.19887C6.34561 9.07129 6.80421 8.93989 7.48095 8.7471L7.06997 7.3045ZM6.6486 11.5303C6.16466 11.0464 5.84052 10.7211 5.62386 10.4587C5.4056 10.1944 5.37958 10.0888 5.37538 10.0585L3.8896 10.2646C3.95198 10.7142 4.19578 11.0851 4.46723 11.4138C4.74029 11.7445 5.12575 12.1288 5.58794 12.591L6.6486 11.5303ZM4.39166 8.50214C3.98896 8.99455 3.80203 9.63333 3.8896 10.2646L5.37538 10.0585C5.34681 9.85259 5.40687 9.63019 5.5528 9.45174L4.39166 8.50214ZM15.0948 16.3609C14.902 17.0377 14.7706 17.4963 14.643 17.8282C14.5143 18.163 14.4286 18.2576 14.3901 18.2891L15.3397 19.4502C15.6858 19.1672 15.8868 18.7731 16.0432 18.3663C16.2006 17.9568 16.3525 17.421 16.5374 16.7719L15.0948 16.3609ZM11.2509 18.2539C11.7131 18.7161 12.0974 19.1016 12.4281 19.3746C12.7568 19.6461 13.1277 19.8899 13.5773 19.9523L13.7834 18.4665C13.7531 18.4623 13.6475 18.4363 13.3832 18.218C13.1208 18.0014 12.7955 17.6772 12.3115 17.1933L11.2509 18.2539ZM14.3901 18.2891C14.2117 18.435 13.9893 18.4951 13.7834 18.4665L13.5773 19.9523C14.2085 20.0398 14.8473 19.8529 15.3397 19.4502L14.3901 18.2891ZM7.61318 12.5056C7.57197 12.5134 7.53963 12.5196 7.51182 12.5246C7.48387 12.5297 7.46601 12.5327 7.45413 12.5344C7.44176 12.5363 7.44332 12.5356 7.45324 12.535C7.46327 12.5343 7.49135 12.5329 7.53046 12.5368L7.38332 14.0295C7.50606 14.0416 7.61521 14.027 7.67447 14.0182C7.73983 14.0085 7.81778 13.9935 7.89233 13.9794L7.61318 12.5056ZM6.60386 13.6069C6.6559 13.659 6.79861 13.8138 6.97043 13.905L7.67414 12.5803C7.7034 12.5959 7.72474 12.6107 7.73719 12.6201C7.74876 12.6288 7.75377 12.6336 7.74966 12.6299C7.74554 12.6262 7.73735 12.6185 7.72199 12.6034C7.70665 12.5884 7.68878 12.5705 7.66452 12.5462L6.60386 13.6069ZM7.53047 12.5368C7.53152 12.5369 7.56156 12.5398 7.60298 12.5523C7.64473 12.5648 7.67196 12.5792 7.67412 12.5803L6.97044 13.905C7.10618 13.9771 7.23217 14.0146 7.38331 14.0295L7.53047 12.5368ZM18.7934 8.85291C18.9776 8.20643 19.1305 7.67251 19.2117 7.24478C19.2917 6.82316 19.3301 6.37847 19.1751 5.95649L17.7671 6.47387C17.7776 6.50255 17.8048 6.61344 17.738 6.96502C17.6724 7.31048 17.543 7.76736 17.3508 8.44193L18.7934 8.85291ZM15.4 6.49103C16.0745 6.29885 16.5314 6.16945 16.8769 6.10387C17.2284 6.03713 17.3393 6.06423 17.368 6.07477L17.8854 4.66682C17.4634 4.51176 17.0187 4.55015 16.5971 4.63019C16.1694 4.71139 15.6355 4.86425 14.989 5.04843L15.4 6.49103ZM19.1751 5.95649C18.9547 5.35682 18.4851 4.88719 17.8854 4.66682L17.368 6.07477C17.5545 6.14331 17.6986 6.28734 17.7671 6.47387L19.1751 5.95649Z" fill="#22272F"/>
</svg>
