<svg width="24" height="24" viewBox="0 0 24 24" fill="none" xmlns="http://www.w3.org/2000/svg">
<path d="M15.8161 16.5664L18.0721 8.64742C18.4485 7.32636 18.6367 6.66583 18.4711 6.21518C18.3266 5.82208 18.0198 5.51525 17.6267 5.3708C17.176 5.20519 16.5155 5.39337 15.1945 5.76973L7.27546 8.0258C5.94964 8.40351 5.28673 8.59237 4.97223 8.97694C4.69791 9.31237 4.57442 9.74296 4.63249 10.1615C4.69907 10.6415 5.17214 11.1145 6.11827 12.0607L7.13419 13.0766C7.22831 13.1707 7.27538 13.2178 7.32228 13.2427C7.37053 13.2683 7.40185 13.2777 7.45689 13.2832C7.5104 13.2884 7.59118 13.2731 7.75275 13.2425C8.28567 13.1416 9.29779 13.0783 10.0307 13.8112C10.7636 14.5441 10.7003 15.5562 10.5994 16.0891C10.5687 16.2507 10.5534 16.3315 10.5587 16.385C10.5641 16.44 10.5736 16.4713 10.5992 16.5196C10.6241 16.5665 10.6712 16.6136 10.7653 16.7077L11.7812 17.7236C12.7273 18.6697 13.2004 19.1428 13.6803 19.2094C14.0989 19.2675 14.5295 19.144 14.8649 18.8696C15.2495 18.5551 15.4384 17.8922 15.8161 16.5664Z" fill="black" fill-opacity="0.32"/>
<path fill-rule="evenodd" clip-rule="evenodd" d="M14.3443 9.49762C14.6372 9.79051 14.6318 10.2708 14.3322 10.5703L10.463 14.4396L9.93269 13.9092L9.40236 13.3789L13.2716 9.50967C13.5711 9.21012 14.0514 9.20472 14.3443 9.49762Z" fill="#22272F"/>
</svg>
