<svg width="24" height="24" viewBox="0 0 24 24" fill="none" xmlns="http://www.w3.org/2000/svg">
<path d="M9 8V6C9 4.34315 10.3431 3 12 3C13.6569 3 15 4.34315 15 6V8" stroke="#22272F" stroke-width="1.5" stroke-linecap="round"/>
<path d="M5.81488 7.38854C5.88048 6.89659 5.91327 6.65061 6.03043 6.46541C6.13366 6.30222 6.28193 6.17241 6.45733 6.09165C6.65639 6 6.90454 6 7.40085 6H16.5992C17.0955 6 17.3437 6 17.5427 6.09165C17.7181 6.17241 17.8664 6.30222 17.9696 6.46541C18.0868 6.65061 18.1196 6.89659 18.1852 7.38854L19.2754 15.5656C19.5256 17.4421 19.6507 18.3803 19.3612 19.1084C19.107 19.7478 18.6407 20.2803 18.0406 20.6168C17.3571 21 16.4106 21 14.5175 21H9.4825C7.58946 21 6.64294 21 5.95941 20.6168C5.3593 20.2803 4.89307 19.7478 4.63886 19.1084C4.34932 18.3803 4.47442 17.4421 4.72461 15.5656L5.81488 7.38854Z" fill="#22272F"/>
</svg>
