<svg width="24" height="24" viewBox="0 0 24 24" fill="none" xmlns="http://www.w3.org/2000/svg">
<path d="M5.81486 7.38854C5.88046 6.89659 5.91325 6.65061 6.03041 6.46541C6.13364 6.30222 6.2819 6.17241 6.45731 6.09165C6.65637 6 6.90452 6 7.40083 6H16.5992C17.0955 6 17.3436 6 17.5427 6.09165C17.7181 6.17241 17.8664 6.30222 17.9696 6.46541C18.0867 6.65061 18.1195 6.89659 18.1851 7.38854L19.2754 15.5656C19.5256 17.4421 19.6507 18.3803 19.3612 19.1084C19.107 19.7478 18.6407 20.2803 18.0406 20.6168C17.3571 21 16.4106 21 14.5175 21H9.48248C7.58944 21 6.64292 21 5.95939 20.6168C5.35927 20.2803 4.89304 19.7478 4.63884 19.1084C4.3493 18.3803 4.47439 17.4421 4.72458 15.5656L5.81486 7.38854Z" stroke="#22272F" stroke-width="2"/>
<path d="M9 8V6C9 4.34315 10.3431 3 12 3C13.6569 3 15 4.34315 15 6V8" stroke="#22272F" stroke-width="2" stroke-linecap="round"/>
</svg>
