<svg width="24" height="24" viewBox="0 0 24 24" fill="none" xmlns="http://www.w3.org/2000/svg">
<path fill-rule="evenodd" clip-rule="evenodd" d="M2.65396 5.27606C2 6.55953 2 8.23969 2 11.6V12.4C2 15.7603 2 17.4405 2.65396 18.7239C3.2292 19.8529 4.14708 20.7708 5.27606 21.346C6.55953 22 8.23969 22 11.6 22H12.4C15.7603 22 17.4405 22 18.7239 21.346C19.8529 20.7708 20.7708 19.8529 21.346 18.7239C22 17.4405 22 15.7603 22 12.4V11.6C22 8.23969 22 6.55953 21.346 5.27606C20.7708 4.14708 19.8529 3.2292 18.7239 2.65396C17.4405 2 15.7603 2 12.4 2H11.6C8.23969 2 6.55953 2 5.27606 2.65396C4.14708 3.2292 3.2292 4.14708 2.65396 5.27606ZM16.5606 9.49827C16.8357 9.18869 16.8079 8.71463 16.4983 8.43944C16.1887 8.16425 15.7146 8.19214 15.4394 8.50173L10.6075 13.9377L8.50172 12.0425C8.19384 11.7654 7.71962 11.7904 7.44253 12.0983C7.16544 12.4062 7.19039 12.8804 7.49828 13.1575L10.1649 15.5575C10.3134 15.6911 10.509 15.76 10.7084 15.7488C10.9078 15.7377 11.0945 15.6475 11.2272 15.4983L16.5606 9.49827Z" fill="#22272F"/>
</svg>
