<svg width="24" height="24" viewBox="0 0 24 24" fill="none" xmlns="http://www.w3.org/2000/svg">
<path d="M9.9436 5.41693C10.6221 4.28945 10.9614 3.72571 11.3998 3.53432C11.7825 3.36727 12.2174 3.36727 12.6001 3.53432C13.0385 3.72571 13.3778 4.28945 14.0563 5.41693L14.7673 6.59833C14.9606 6.91963 15.0573 7.08028 15.185 7.20882C15.2982 7.32277 15.429 7.41779 15.5724 7.49026C15.7341 7.572 15.9168 7.61431 16.2821 7.69892L17.6254 8.01002C18.9073 8.30693 19.5483 8.45538 19.8658 8.81319C20.143 9.1255 20.2774 9.53918 20.2367 9.95473C20.1902 10.4308 19.7589 10.9277 18.8963 11.9214L17.9924 12.9627C17.7466 13.2458 17.6237 13.3874 17.5409 13.5486C17.4675 13.6915 17.4175 13.8453 17.3929 14.004C17.3651 14.1831 17.3813 14.3699 17.4138 14.7435L17.533 16.1171C17.6468 17.4281 17.7037 18.0836 17.4615 18.4961C17.2501 18.8562 16.8982 19.1119 16.4904 19.2016C16.0232 19.3045 15.4174 19.0478 14.2058 18.5345L12.9362 17.9966C12.5909 17.8504 12.4182 17.7772 12.2394 17.7483C12.0808 17.7227 11.9191 17.7227 11.7605 17.7483C11.5817 17.7772 11.409 17.8503 11.0637 17.9966L9.79413 18.5345C8.58247 19.0478 7.97665 19.3045 7.50947 19.2016C7.1017 19.1119 6.74981 18.8562 6.53842 18.4961C6.29624 18.0836 6.35312 17.4281 6.4669 16.1171L6.58612 14.7435C6.61854 14.3699 6.63475 14.1831 6.60698 14.004C6.58236 13.8453 6.5324 13.6915 6.45902 13.5486C6.37623 13.3874 6.25332 13.2458 6.0075 12.9627L5.10363 11.9214C4.24101 10.9277 3.8097 10.4308 3.76315 9.95473C3.72253 9.53918 3.85694 9.1255 4.13406 8.81319C4.45156 8.45538 5.09255 8.30693 6.37452 8.01002L7.7178 7.69892C8.08312 7.61431 8.26578 7.572 8.4275 7.49026C8.57086 7.41779 8.70165 7.32277 8.81487 7.20882C8.94259 7.08028 9.03927 6.91963 9.23263 6.59833L9.9436 5.41693Z" stroke="#22272F" stroke-width="2"/>
</svg>
