<svg width="24" height="24" viewBox="0 0 24 24" fill="none" xmlns="http://www.w3.org/2000/svg">
<path d="M9.94366 5.41693C10.6222 4.28945 10.9615 3.72571 11.3999 3.53432C11.7825 3.36727 12.2175 3.36727 12.6001 3.53432C13.0386 3.72571 13.3778 4.28945 14.0563 5.41693L14.7673 6.59833C14.9607 6.91963 15.0574 7.08028 15.1851 7.20882C15.2983 7.32277 15.4291 7.41779 15.5725 7.49026C15.7342 7.572 15.9168 7.61431 16.2822 7.69892L17.6254 8.01002C18.9074 8.30693 19.5484 8.45538 19.8659 8.81319C20.143 9.1255 20.2774 9.53918 20.2368 9.95473C20.1902 10.4308 19.7589 10.9277 18.8963 11.9214L17.9924 12.9627C17.7466 13.2458 17.6237 13.3874 17.5409 13.5486C17.4675 13.6915 17.4176 13.8453 17.393 14.004C17.3652 14.1831 17.3814 14.3699 17.4138 14.7435L17.5331 16.1171C17.6468 17.4281 17.7037 18.0836 17.4615 18.4961C17.2501 18.8562 16.8982 19.1119 16.4905 19.2016C16.0233 19.3045 15.4175 19.0478 14.2058 18.5345L12.9362 17.9966C12.5909 17.8504 12.4183 17.7772 12.2394 17.7483C12.0808 17.7227 11.9192 17.7227 11.7606 17.7483C11.5817 17.7772 11.4091 17.8503 11.0638 17.9966L9.79419 18.5345C8.58253 19.0478 7.97671 19.3045 7.50953 19.2016C7.10176 19.1119 6.74987 18.8562 6.53848 18.4961C6.2963 18.0836 6.35319 17.4281 6.46696 16.1171L6.58618 14.7435C6.6186 14.3699 6.63481 14.1831 6.60704 14.004C6.58242 13.8453 6.53246 13.6915 6.45908 13.5486C6.3763 13.3874 6.25339 13.2458 6.00756 12.9627L5.10369 11.9214C4.24107 10.9277 3.80976 10.4308 3.76322 9.95473C3.72259 9.53918 3.857 9.1255 4.13412 8.81319C4.45162 8.45538 5.09261 8.30693 6.37458 8.01002L7.71786 7.69892C8.08318 7.61431 8.26585 7.572 8.42756 7.49026C8.57092 7.41779 8.70171 7.32277 8.81493 7.20882C8.94265 7.08028 9.03933 6.91963 9.23269 6.59833L9.94366 5.41693Z" fill="#22272F" fill-opacity="0.12" stroke="#22272F" stroke-width="1.5"/>
</svg>
