<svg width="24" height="24" viewBox="0 0 24 24" fill="none" xmlns="http://www.w3.org/2000/svg">
<path fill-rule="evenodd" clip-rule="evenodd" d="M12 22C17.5228 22 22 17.5228 22 12C22 11.3649 21.9408 10.7437 21.8276 10.1415C21.7974 9.98094 21.7762 9.86767 21.744 9.75H21.4H21.367C20.2749 9.75 19.4094 9.75001 18.7117 9.69301C17.9983 9.63473 17.3947 9.51312 16.8435 9.23228C15.9498 8.77688 15.2231 8.05022 14.7677 7.15645C14.4869 6.60528 14.3653 6.00165 14.307 5.28827C14.25 4.59065 14.25 3.72515 14.25 2.63301V2.633V2.6V2.25604C14.1323 2.22384 14.0191 2.20256 13.8585 2.17237C13.2563 2.0592 12.6351 2 12 2C6.47715 2 2 6.47715 2 12C2 17.5228 6.47715 22 12 22ZM15.7504 3.20826C15.752 4.03039 15.7603 4.65575 15.802 5.16612C15.8527 5.78675 15.9491 6.171 16.1042 6.47547C16.4158 7.087 16.913 7.58418 17.5245 7.89577C17.829 8.05091 18.2133 8.14729 18.8339 8.19799C19.3443 8.23969 19.9696 8.24796 20.7917 8.2496C20.7657 8.22345 20.7383 8.19615 20.7097 8.16748L20.7097 8.16747L15.8325 3.29033L15.8325 3.29032C15.8039 3.26166 15.7765 3.23435 15.7504 3.20826Z" fill="black" fill-opacity="0.32"/>
<circle cx="10" cy="10" r="2" stroke="#22272F" stroke-width="1.5"/>
<path fill-rule="evenodd" clip-rule="evenodd" d="M4.90149 19.0436L6.05805 17.2261L6.07264 17.2032C6.37957 16.7208 6.63058 16.3264 6.85292 16.0248C7.07895 15.7181 7.31963 15.4442 7.62684 15.2501C8.47925 14.7115 9.55804 14.6826 10.438 15.1748C10.7552 15.3522 11.0102 15.6129 11.2523 15.907C11.3399 16.0134 11.432 16.1321 11.53 16.2629L11.9032 15.5165L11.9202 15.4826C12.305 14.713 12.617 14.0888 12.906 13.6228C13.1977 13.1525 13.5269 12.7381 13.9919 12.4933C14.6752 12.1337 15.4783 12.0779 16.2048 12.3397C16.6992 12.5178 17.0825 12.8828 17.4363 13.3083C17.7869 13.7299 18.1823 14.3049 18.6697 15.014L18.6912 15.0452L20.3656 17.4808C20.0766 17.921 19.7538 18.337 19.4009 18.7252L17.4551 15.895C16.9411 15.1473 16.5843 14.6297 16.283 14.2674C15.9798 13.9028 15.8075 13.7909 15.6963 13.7509C15.3661 13.6319 15.0011 13.6573 14.6905 13.8207C14.5859 13.8757 14.4307 14.0103 14.1808 14.4134C13.9324 14.8139 13.6507 15.3758 13.2449 16.1873L10.402 21.873C9.88908 21.7907 9.38918 21.6693 8.90547 21.512L10.7743 17.7744C10.4835 17.3679 10.2729 17.0774 10.0942 16.8604C9.89289 16.6158 9.77957 16.5252 9.70584 16.484C9.30584 16.2603 8.81548 16.2734 8.42802 16.5182C8.3566 16.5633 8.24829 16.6598 8.06033 16.9148C7.8722 17.17 7.64863 17.5206 7.32354 18.0314L6.13273 19.9027C6.10378 19.9482 6.07073 19.9895 6.03438 20.0265C5.63244 19.7273 5.25374 19.3985 4.90149 19.0436Z" fill="#22272F"/>
</svg>
