<svg width="24" height="24" viewBox="0 0 24 24" fill="none" xmlns="http://www.w3.org/2000/svg">
<path d="M22 12C22 17.5228 17.5228 22 12 22C6.47715 22 2 17.5228 2 12C2 6.47715 6.47715 2 12 2C12.6351 2 13.2563 2.0592 13.8585 2.17237C14.1309 2.22358 14.2672 2.24919 14.5199 2.34593C14.6997 2.41479 14.9964 2.57135 15.1547 2.68096C15.3772 2.83496 15.5289 2.98675 15.8325 3.29033L20.7097 8.16747C21.0133 8.47105 21.165 8.62284 21.319 8.8453C21.4287 9.00364 21.5852 9.3003 21.6541 9.48014C21.7508 9.73282 21.7764 9.86905 21.8276 10.1415C21.9408 10.7437 22 11.3649 22 12Z" stroke="#22272F" stroke-width="1.5" stroke-linejoin="round"/>
<path d="M15 2.5V2.6C15 4.84021 15 5.96032 15.436 6.81596C15.8195 7.56861 16.4314 8.18053 17.184 8.56403C18.0397 9 19.1598 9 21.4 9H21.5" stroke="#22272F" stroke-width="1.5" stroke-linejoin="round"/>
<circle cx="10" cy="10" r="2" stroke="#22272F" stroke-width="1.5"/>
<path fill-rule="evenodd" clip-rule="evenodd" d="M22 12C22 14.5369 21.0553 16.8532 19.4985 18.6162C19.496 18.4623 19.4892 18.3532 19.4707 18.2463C19.4447 18.096 19.4016 17.9492 19.3422 17.8087C19.2753 17.6504 19.1808 17.5034 18.9918 17.2094L18.9918 17.2094L18.0399 15.7287C17.0442 14.1799 16.5463 13.4054 15.9361 13.1705C15.404 12.9656 14.8097 12.9977 14.3026 13.2585C13.7212 13.5577 13.3094 14.3812 12.486 16.0281L10.2562 20.4875L10.2562 20.4876L10.2562 20.4876C10.2114 20.5772 10.189 20.622 10.1691 20.6673C10.071 20.8905 10.0145 21.1297 10.0024 21.3732C10 21.4226 10 21.4727 10 21.5729C10 21.657 10 21.7322 10.0003 21.8C9.85274 21.7701 9.70639 21.7369 9.5613 21.7005L10.9925 18.5997L10.9925 18.5996C11.0124 18.5564 11.0224 18.5348 11.0313 18.5144C11.3051 17.8847 11.2367 17.1585 10.8501 16.591C10.8375 16.5726 10.8237 16.5532 10.796 16.5145L10.796 16.5144C10.7314 16.424 10.6991 16.3788 10.6737 16.3462C9.84566 15.2827 8.22417 15.3261 7.45418 16.4323C7.43056 16.4663 7.40072 16.5132 7.34104 16.6069L6.00028 18.7138C5.81421 19.0062 5.72118 19.1524 5.65533 19.3096C5.61035 19.417 5.57485 19.528 5.54922 19.6414C3.37849 17.8071 2 15.0645 2 12C2 6.47715 6.47715 2 12 2C12.6351 2 13.2563 2.0592 13.8585 2.17237C14.1309 2.22358 14.2672 2.24919 14.5199 2.34593C14.6997 2.41479 14.9964 2.57135 15.1547 2.68096C15.3772 2.83496 15.5289 2.98675 15.8325 3.29032L15.8325 3.29033L20.7097 8.16747L20.7097 8.16748C21.0133 8.47106 21.165 8.62285 21.319 8.8453C21.4287 9.00364 21.5852 9.3003 21.6541 9.48014C21.7508 9.73282 21.7764 9.86905 21.8276 10.1415C21.9408 10.7437 22 11.3649 22 12ZM20.2678 7.76779L16.221 3.72098C15.8663 3.36629 15.2683 3.46332 15.044 3.91197C15.0148 3.9704 14.9932 4.03197 14.9822 4.09636C14.8325 4.97683 14.8441 6.8441 16 8C16.9797 8.97974 18.6927 9.13735 19.8328 9.0715C20.2197 9.04915 20.5 8.71595 20.5 8.32839C20.5 8.11813 20.4165 7.91647 20.2678 7.76779ZM10 12C11.1046 12 12 11.1046 12 10C12 8.89543 11.1046 8 10 8C8.89543 8 8 8.89543 8 10C8 11.1046 8.89543 12 10 12Z" fill="#22272F" fill-opacity="0.12"/>
<path d="M19.5 18L18.0399 15.7287C17.0442 14.1799 16.5463 13.4054 15.9361 13.1705C15.404 12.9656 14.8097 12.9977 14.3026 13.2585C13.7212 13.5577 13.3094 14.3812 12.486 16.0281L10 21" stroke="#22272F" stroke-width="1.5" stroke-linecap="round" stroke-linejoin="round"/>
<path d="M11.5 17.5V17.5C10.8086 16.532 10.4628 16.048 10.072 15.8294C9.43195 15.4714 8.64738 15.4924 8.02744 15.8841C7.64881 16.1233 7.32948 16.6251 6.69081 17.6287L5.5 19.5" stroke="#22272F" stroke-width="1.5" stroke-linecap="round" stroke-linejoin="round"/>
</svg>
