<svg width="24" height="24" viewBox="0 0 24 24" fill="none" xmlns="http://www.w3.org/2000/svg">
<path fill-rule="evenodd" clip-rule="evenodd" d="M22 12C22 14.1595 21.3155 16.1592 20.1516 17.7938L18.6833 15.3432C18.6792 15.3365 18.675 15.3298 18.6708 15.3232L18.6501 15.291C18.1698 14.5439 17.7811 13.9392 17.4346 13.4954C17.086 13.0488 16.7053 12.663 16.2056 12.4706C15.4738 12.1889 14.6567 12.2329 13.9595 12.5916C13.4833 12.8366 13.1463 13.2612 12.8477 13.7426C12.5509 14.2211 12.2294 14.8641 11.8322 15.6585L11.8151 15.6927L11.53 16.2629C11.432 16.1321 11.3399 16.0134 11.2523 15.907C11.0102 15.6129 10.7552 15.3522 10.4381 15.1748C9.55805 14.6826 8.47926 14.7115 7.62685 15.25C7.31964 15.4441 7.07897 15.7181 6.85294 16.0247C6.6306 16.3264 6.3796 16.7208 6.07267 17.2031L6.07266 17.2031L6.07265 17.2031L6.05806 17.2261L4.9015 19.0435C3.10798 17.2361 2 14.7474 2 12C2 6.47715 6.47715 2 12 2C12.6351 2 13.2563 2.0592 13.8585 2.17237L13.8585 2.17238C14.0191 2.20256 14.1323 2.22384 14.25 2.25604V2.6V2.633V2.63301V2.63303C14.25 3.72516 14.25 4.59065 14.307 5.28827C14.3653 6.00166 14.4869 6.60528 14.7677 7.15646C15.2231 8.05022 15.9498 8.77688 16.8435 9.23228C17.3947 9.51312 17.9983 9.63473 18.7117 9.69301C19.4094 9.75001 20.2749 9.75001 21.367 9.75H21.4H21.744C21.7762 9.86765 21.7974 9.9809 21.8276 10.1414L21.8276 10.1415C21.9408 10.7437 22 11.3649 22 12ZM15.802 5.16612C15.7603 4.65575 15.752 4.03039 15.7504 3.20826L15.8325 3.29032L15.8325 3.29033L20.7097 8.16747L20.7097 8.16748L20.7917 8.2496C19.9696 8.24796 19.3443 8.23969 18.8339 8.19799C18.2133 8.14729 17.829 8.05091 17.5245 7.89577C16.913 7.58418 16.4158 7.087 16.1042 6.47547C15.9491 6.171 15.8527 5.78675 15.802 5.16612ZM6.03439 20.0265C6.89528 20.6673 7.86279 21.173 8.90548 21.512L10.7743 17.7744C10.4835 17.3678 10.2729 17.0774 10.0942 16.8603C9.8929 16.6158 9.77959 16.5252 9.70585 16.4839C9.30585 16.2602 8.81549 16.2733 8.42803 16.5181C8.35661 16.5633 8.24831 16.6598 8.06034 16.9148C7.87221 17.17 7.64864 17.5205 7.32356 18.0314L6.13275 19.9027C6.10379 19.9482 6.07074 19.9895 6.03439 20.0265ZM10.402 21.873L13.1568 16.3635C13.5751 15.5268 13.8663 14.9461 14.1224 14.5332C14.3809 14.1164 14.5404 13.9796 14.6457 13.9255C14.9626 13.7624 15.3341 13.7424 15.6667 13.8704C15.7772 13.913 15.9505 14.0318 16.2523 14.4184C16.55 14.7998 16.9002 15.3428 17.4026 16.1244L19.1316 19.01C17.3174 20.8555 14.7924 22 12 22C11.4561 22 10.9224 21.9566 10.402 21.873ZM8.75 10C8.75 9.30964 9.30964 8.75 10 8.75C10.6904 8.75 11.25 9.30964 11.25 10C11.25 10.6904 10.6904 11.25 10 11.25C9.30964 11.25 8.75 10.6904 8.75 10ZM10 7.25C8.48122 7.25 7.25 8.48122 7.25 10C7.25 11.5188 8.48122 12.75 10 12.75C11.5188 12.75 12.75 11.5188 12.75 10C12.75 8.48122 11.5188 7.25 10 7.25Z" fill="#22272F"/>
</svg>
