<svg width="24" height="24" viewBox="0 0 24 24" fill="none" xmlns="http://www.w3.org/2000/svg">
<path d="M22 12C22 17.5228 17.5228 22 12 22C6.47715 22 2 17.5228 2 12C2 6.47715 6.47715 2 12 2C12.6351 2 13.2563 2.0592 13.8585 2.17237C14.1309 2.22358 14.2672 2.24919 14.5199 2.34593C14.6997 2.41479 14.9964 2.57135 15.1547 2.68096C15.3772 2.83496 15.5289 2.98675 15.8325 3.29033L20.7097 8.16747C21.0133 8.47105 21.165 8.62284 21.319 8.8453C21.4287 9.00364 21.5852 9.3003 21.6541 9.48014C21.7508 9.73282 21.7764 9.86905 21.8276 10.1415C21.9408 10.7437 22 11.3649 22 12Z" stroke="#22272F" stroke-width="1.5" stroke-linejoin="round"/>
<path d="M15 2.5V2.6C15 4.84021 15 5.96032 15.436 6.81596C15.8195 7.56861 16.4314 8.18053 17.184 8.56403C18.0397 9 19.1598 9 21.4 9H21.5" stroke="#22272F" stroke-width="1.5" stroke-linejoin="round"/>
<path d="M19.5 18L18.0399 15.7287C17.0442 14.1799 16.5463 13.4054 15.9361 13.1705C15.404 12.9656 14.8097 12.9977 14.3026 13.2585C13.7212 13.5577 13.3094 14.3812 12.486 16.0281L10 21" stroke="#22272F" stroke-width="1.5" stroke-linecap="round" stroke-linejoin="round"/>
<path d="M11.5 17.5V17.5C10.8086 16.532 10.4628 16.048 10.072 15.8294C9.43195 15.4714 8.64738 15.4924 8.02744 15.8841C7.64881 16.1233 7.32948 16.6251 6.69081 17.6287L5.5 19.5" stroke="#22272F" stroke-width="1.5" stroke-linecap="round" stroke-linejoin="round"/>
<circle cx="10" cy="10" r="2" stroke="#22272F" stroke-width="1.5"/>
</svg>
