<svg width="24" height="24" viewBox="0 0 24 24" fill="none" xmlns="http://www.w3.org/2000/svg">
<path d="M12.4213 5.36742L11.4543 5.11293L11.4543 5.11293L12.4213 5.36742ZM11.687 8.15772L11.9415 9.1248C12.2901 9.03306 12.5624 8.76081 12.6541 8.41221L11.687 8.15772ZM15.7697 4.4622L15.0626 5.16931L15.7697 4.4622ZM19.2218 7.9143L19.9289 7.20719L19.2218 7.9143ZM18.3166 11.2627L18.0621 10.2956L18.0621 10.2956L18.3166 11.2627ZM15.5263 11.9969L15.2718 11.0299C14.9232 11.1216 14.6509 11.3939 14.5592 11.7425L15.5263 11.9969ZM13.9058 18.1547L13.1987 18.8618C13.4519 19.115 13.8211 19.2135 14.1668 19.12C14.5125 19.0266 14.7818 18.7554 14.8729 18.4092L13.9058 18.1547ZM5.52932 9.77817L5.27483 8.8111C4.92855 8.90223 4.65742 9.17154 4.56398 9.51719C4.47053 9.86285 4.56902 10.2321 4.82221 10.4853L5.52932 9.77817ZM11.4543 5.11293L10.72 7.90323L12.6541 8.41221L13.3884 5.62192L11.4543 5.11293ZM16.4768 3.75509C14.8396 2.11788 12.0435 2.87379 11.4543 5.11293L13.3884 5.62192C13.5848 4.87554 14.5168 4.62356 15.0626 5.16931L16.4768 3.75509ZM19.9289 7.20719L16.4768 3.75509L15.0626 5.16931L18.5147 8.62141L19.9289 7.20719ZM18.5711 12.2297C20.8102 11.6405 21.5661 8.84441 19.9289 7.20719L18.5147 8.62141C19.0604 9.16714 18.8085 10.0992 18.0621 10.2956L18.5711 12.2297ZM15.7808 12.964L18.5711 12.2297L18.0621 10.2956L15.2718 11.0299L15.7808 12.964ZM14.8729 18.4092L16.4933 12.2514L14.5592 11.7425L12.9387 17.9002L14.8729 18.4092ZM4.82221 10.4853L13.1987 18.8618L14.6129 17.4476L6.23643 9.07107L4.82221 10.4853ZM11.4325 7.19065L5.27483 8.8111L5.78381 10.7452L11.9415 9.1248L11.4325 7.19065Z" fill="#22272F"/>
<path d="M3.35356 19.6234L8.65686 14.3201L9.36397 15.0272L4.06067 20.3305H3.35356V19.6234Z" fill="#22272F"/>
</svg>
