<svg width="24" height="24" viewBox="0 0 24 24" fill="none" xmlns="http://www.w3.org/2000/svg">
<path fill-rule="evenodd" clip-rule="evenodd" d="M11.6043 7.89844L12.3386 5.10815C12.7315 3.61539 14.5955 3.11144 15.687 4.20292L19.1391 7.65502C20.2306 8.7465 19.7266 10.6106 18.2339 11.0034L15.4436 11.7377L13.8231 17.8954L5.44662 9.5189L11.6043 7.89844Z" fill="#22272F" fill-opacity="0.12"/>
<path d="M12.3386 5.10815L11.6133 4.91728L11.6133 4.91728L12.3386 5.10815ZM11.6043 7.89844L11.7952 8.62375C12.0567 8.55495 12.2608 8.35076 12.3296 8.08931L11.6043 7.89844ZM18.2339 11.0034L18.043 10.2781L18.043 10.2781L18.2339 11.0034ZM15.4436 11.7377L15.2527 11.0124C14.9912 11.0812 14.7871 11.2854 14.7183 11.5468L15.4436 11.7377ZM13.8231 17.8954L13.2928 18.4257C13.4827 18.6156 13.7596 18.6895 14.0188 18.6194C14.2781 18.5493 14.4801 18.346 14.5484 18.0863L13.8231 17.8954ZM5.44662 9.5189L5.25575 8.79359C4.99604 8.86194 4.7927 9.06392 4.72261 9.32316C4.65252 9.5824 4.7264 9.85933 4.91629 10.0492L5.44662 9.5189ZM11.6133 4.91728L10.879 7.70757L12.3296 8.08931L13.0639 5.29902L11.6133 4.91728ZM16.2173 3.67259C14.7165 2.17181 12.1535 2.86473 11.6133 4.91728L13.0639 5.29902C13.3095 4.36604 14.4745 4.05108 15.1567 4.73325L16.2173 3.67259ZM19.6694 7.12469L16.2173 3.67259L15.1567 4.73325L18.6088 8.18535L19.6694 7.12469ZM18.4247 11.7287C20.4773 11.1885 21.1702 8.62547 19.6694 7.12469L18.6088 8.18535C19.2909 8.86752 18.976 10.0326 18.043 10.2781L18.4247 11.7287ZM15.6344 12.463L18.4247 11.7287L18.043 10.2781L15.2527 11.0124L15.6344 12.463ZM14.5484 18.0863L16.1689 11.9285L14.7183 11.5468L13.0978 17.7045L14.5484 18.0863ZM4.91629 10.0492L13.2928 18.4257L14.3534 17.3651L5.97695 8.98857L4.91629 10.0492ZM11.4135 7.17314L5.25575 8.79359L5.63749 10.2442L11.7952 8.62375L11.4135 7.17314Z" fill="#22272F"/>
<path d="M3.27089 19.3639L8.96558 13.6692L9.67268 14.3763L3.97799 20.071L3.27089 20.071L3.27089 19.3639Z" fill="#22272F"/>
</svg>
