<svg width="24" height="24" viewBox="0 0 24 24" fill="none" xmlns="http://www.w3.org/2000/svg">
<path d="M12.3386 5.36742L11.855 5.24018L11.855 5.24018L12.3386 5.36742ZM11.6043 8.15772L11.7315 8.64126C11.9058 8.59539 12.0419 8.45927 12.0878 8.28497L11.6043 8.15772ZM15.6869 4.4622L15.3334 4.81575L15.6869 4.4622ZM19.139 7.9143L19.4926 7.56075L19.139 7.9143ZM18.2338 11.2627L18.1066 10.7791L18.1066 10.7791L18.2338 11.2627ZM15.4435 11.9969L15.3163 11.5134C15.142 11.5593 15.0058 11.6954 14.96 11.8697L15.4435 11.9969ZM13.8231 18.1547L13.4695 18.5082C13.5961 18.6348 13.7807 18.6841 13.9535 18.6373C14.1264 18.5906 14.261 18.4551 14.3066 18.2819L13.8231 18.1547ZM5.44656 9.77817L5.31931 9.29464C5.14617 9.3402 5.01061 9.47486 4.96388 9.64768C4.91716 9.82051 4.96641 10.0051 5.093 10.1317L5.44656 9.77817ZM11.855 5.24018L11.1207 8.03047L12.0878 8.28497L12.8221 5.49467L11.855 5.24018ZM16.0405 4.10865C14.6761 2.7443 12.3461 3.37423 11.855 5.24018L12.8221 5.49467C13.1167 4.3751 14.5148 3.99714 15.3334 4.81575L16.0405 4.10865ZM19.4926 7.56075L16.0405 4.10865L15.3334 4.81575L18.7855 8.26785L19.4926 7.56075ZM18.361 11.7462C20.227 11.2552 20.8569 8.92509 19.4926 7.56075L18.7855 8.26785C19.6041 9.08646 19.2261 10.4845 18.1066 10.7791L18.361 11.7462ZM15.5708 12.4805L18.361 11.7462L18.1066 10.7791L15.3163 11.5134L15.5708 12.4805ZM14.3066 18.2819L15.927 12.1242L14.96 11.8697L13.3395 18.0274L14.3066 18.2819ZM5.093 10.1317L13.4695 18.5082L14.1766 17.8011L5.80011 9.42462L5.093 10.1317ZM11.477 7.67418L5.31931 9.29464L5.5738 10.2617L11.7315 8.64126L11.477 7.67418Z" fill="#22272F"/>
<path d="M3.27084 19.6232L9.31909 13.575L10.0262 14.2821L3.97795 20.3303L3.27084 20.3303L3.27084 19.6232Z" fill="#22272F"/>
</svg>
