<svg width="24" height="24" viewBox="0 0 24 24" fill="none" xmlns="http://www.w3.org/2000/svg">
<path d="M8 6C8 5.06812 8 4.60218 8.15224 4.23463C8.35523 3.74458 8.74458 3.35523 9.23463 3.15224C9.60218 3 10.0681 3 11 3H13C13.9319 3 14.3978 3 14.7654 3.15224C15.2554 3.35523 15.6448 3.74458 15.8478 4.23463C16 4.60218 16 5.06812 16 6V6H8V6Z" stroke="#22272F"/>
<path d="M5.24472 6.80786L5.72025 6.96236L5.24472 6.80786ZM5.58817 6V5.5H5.28815L5.14698 5.76472L5.58817 6ZM5.24472 17.5451L4.76919 17.6996L4.76919 17.6996L5.24472 17.5451ZM8.45492 20.7553L8.30041 21.2308L8.30041 21.2308L8.45492 20.7553ZM15.5451 20.7553L15.3906 20.2798L15.3906 20.2798L15.5451 20.7553ZM18.7553 17.5451L18.2798 17.3906L18.2798 17.3906L18.7553 17.5451ZM18.7553 6.80786L19.2308 6.65335L19.2308 6.65335L18.7553 6.80786ZM18.4118 6L18.853 5.76472L18.7118 5.5H18.4118V6ZM5.72025 6.96236C5.80252 6.70914 5.90626 6.46609 6.02935 6.23528L5.14698 5.76472C4.99649 6.04691 4.86971 6.34399 4.76919 6.65335L5.72025 6.96236ZM5.5 10.3529C5.5 8.45274 5.50617 7.62123 5.72025 6.96236L4.76919 6.65335C4.49383 7.50081 4.5 8.53058 4.5 10.3529H5.5ZM5.5 14V10.3529H4.5V14H5.5ZM5.72025 17.3906C5.50617 16.7317 5.5 15.9002 5.5 14H4.5C4.5 15.8224 4.49383 16.8521 4.76919 17.6996L5.72025 17.3906ZM8.60942 20.2798C7.23945 19.8346 6.16538 18.7605 5.72025 17.3906L4.76919 17.6996C5.31324 19.374 6.626 20.6868 8.30041 21.2308L8.60942 20.2798ZM12 20.5C10.0998 20.5 9.26828 20.4938 8.60942 20.2798L8.30041 21.2308C9.14787 21.5062 10.1776 21.5 12 21.5V20.5ZM15.3906 20.2798C14.7317 20.4938 13.9002 20.5 12 20.5V21.5C13.8224 21.5 14.8521 21.5062 15.6996 21.2308L15.3906 20.2798ZM18.2798 17.3906C17.8346 18.7605 16.7605 19.8346 15.3906 20.2798L15.6996 21.2308C17.374 20.6868 18.6868 19.374 19.2308 17.6996L18.2798 17.3906ZM18.5 14C18.5 15.9002 18.4938 16.7317 18.2798 17.3906L19.2308 17.6996C19.5062 16.8521 19.5 15.8224 19.5 14H18.5ZM18.5 10.3529V14H19.5V10.3529H18.5ZM18.2798 6.96236C18.4938 7.62123 18.5 8.45274 18.5 10.3529H19.5C19.5 8.53058 19.5062 7.50081 19.2308 6.65335L18.2798 6.96236ZM17.9707 6.23528C18.0937 6.46609 18.1975 6.70914 18.2798 6.96237L19.2308 6.65335C19.1303 6.34399 19.0035 6.04691 18.853 5.76472L17.9707 6.23528ZM18.4118 5.5H5.58817V6.5H18.4118V5.5Z" fill="#22272F"/>
<path d="M4 6H20" stroke="#22272F" stroke-linecap="round"/>
<path d="M14 11L10 15M14 15L10 11" stroke="#22272F" stroke-linecap="round" stroke-linejoin="round"/>
</svg>
