<svg width="24" height="24" viewBox="0 0 24 24" fill="none" xmlns="http://www.w3.org/2000/svg">
<path d="M16 4.5V4.5C16 3.67157 15.3284 3 14.5 3H9.5C8.67157 3 8 3.67157 8 4.5V4.5" stroke="#22272F" stroke-width="1.5"/>
<path fill-rule="evenodd" clip-rule="evenodd" d="M5 5.25C4.58579 5.25 4.25 5.58579 4.25 6C4.25 6.41421 4.58579 6.75 5 6.75H5.26391C5.2574 6.76923 5.251 6.78852 5.24472 6.80786C5 7.56102 5 8.49166 5 10.3529V14C5 15.8613 5 16.7919 5.24472 17.5451C5.73931 19.0673 6.93273 20.2607 8.45492 20.7553C9.20808 21 10.1387 21 12 21C13.8613 21 14.7919 21 15.5451 20.7553C17.0673 20.2607 18.2607 19.0673 18.7553 17.5451C19 16.7919 19 15.8613 19 14V10.3529C19 8.49166 19 7.56102 18.7553 6.80786C18.749 6.78852 18.7426 6.76923 18.7361 6.75H19C19.4142 6.75 19.75 6.41421 19.75 6C19.75 5.58579 19.4142 5.25 19 5.25H5ZM10.5303 10.4697C10.2374 10.1768 9.76256 10.1768 9.46967 10.4697C9.17678 10.7626 9.17678 11.2374 9.46967 11.5303L10.9393 13L9.46967 14.4697C9.17678 14.7626 9.17678 15.2374 9.46967 15.5303C9.76256 15.8232 10.2374 15.8232 10.5303 15.5303L12 14.0607L13.4697 15.5303C13.7626 15.8232 14.2374 15.8232 14.5303 15.5303C14.8232 15.2374 14.8232 14.7626 14.5303 14.4697L13.0607 13L14.5303 11.5303C14.8232 11.2374 14.8232 10.7626 14.5303 10.4697C14.2374 10.1768 13.7626 10.1768 13.4697 10.4697L12 11.9393L10.5303 10.4697Z" fill="black" fill-opacity="0.32"/>
</svg>
