<svg width="24" height="24" viewBox="0 0 24 24" fill="none" xmlns="http://www.w3.org/2000/svg">
<path d="M8 6C8 5.06812 8 4.60218 8.15224 4.23463C8.35523 3.74458 8.74458 3.35523 9.23463 3.15224C9.60218 3 10.0681 3 11 3H13C13.9319 3 14.3978 3 14.7654 3.15224C15.2554 3.35523 15.6448 3.74458 15.8478 4.23463C16 4.60218 16 5.06812 16 6V6H8V6Z" stroke="#22272F" stroke-width="1.5"/>
<path fill-rule="evenodd" clip-rule="evenodd" d="M5.58817 6C5.45138 6.2565 5.33611 6.52657 5.24472 6.80786C5 7.56102 5 8.49166 5 10.3529V14C5 15.8613 5 16.7919 5.24472 17.5451C5.73931 19.0673 6.93273 20.2607 8.45492 20.7553C9.20808 21 10.1387 21 12 21C13.8613 21 14.7919 21 15.5451 20.7553C17.0673 20.2607 18.2607 19.0673 18.7553 17.5451C19 16.7919 19 15.8613 19 14V10.3529C19 8.49166 19 7.56102 18.7553 6.80786C18.6639 6.52657 18.5486 6.2565 18.4118 6H5.58817Z" fill="#22272F" fill-opacity="0.12"/>
<path d="M5.24472 6.80786L5.95801 7.03962L5.95801 7.03962L5.24472 6.80786ZM5.58817 6V5.25H5.13815L4.92639 5.64708L5.58817 6ZM5.24472 17.5451L4.53142 17.7768L4.53143 17.7768L5.24472 17.5451ZM8.45492 20.7553L8.22315 21.4686L8.22315 21.4686L8.45492 20.7553ZM15.5451 20.7553L15.3133 20.042L15.3133 20.042L15.5451 20.7553ZM18.7553 17.5451L18.042 17.3133L18.042 17.3133L18.7553 17.5451ZM18.7553 6.80786L19.4686 6.57609L19.4686 6.57609L18.7553 6.80786ZM18.4118 6L19.0736 5.64708L18.8619 5.25H18.4118V6ZM5.95801 7.03962C6.03573 6.80043 6.1337 6.57088 6.24994 6.35292L4.92639 5.64708C4.76905 5.94212 4.6365 6.2527 4.53143 6.57609L5.95801 7.03962ZM5.75 10.3529C5.75 8.43329 5.75925 7.65133 5.95801 7.03962L4.53143 6.57609C4.24075 7.47071 4.25 8.55003 4.25 10.3529H5.75ZM5.75 14V10.3529H4.25V14H5.75ZM5.95801 17.3133C5.75925 16.7016 5.75 15.9197 5.75 14H4.25C4.25 15.8029 4.24075 16.8822 4.53142 17.7768L5.95801 17.3133ZM8.68668 20.042C7.39282 19.6216 6.37841 18.6072 5.95801 17.3133L4.53143 17.7768C5.1002 19.5274 6.47263 20.8998 8.22315 21.4686L8.68668 20.042ZM12 20.25C10.0803 20.25 9.29839 20.2407 8.68668 20.042L8.22315 21.4686C9.11777 21.7593 10.1971 21.75 12 21.75V20.25ZM15.3133 20.042C14.7016 20.2407 13.9197 20.25 12 20.25V21.75C13.8029 21.75 14.8822 21.7593 15.7768 21.4686L15.3133 20.042ZM18.042 17.3133C17.6216 18.6072 16.6072 19.6216 15.3133 20.042L15.7768 21.4686C17.5274 20.8998 18.8998 19.5274 19.4686 17.7768L18.042 17.3133ZM18.25 14C18.25 15.9197 18.2407 16.7016 18.042 17.3133L19.4686 17.7768C19.7593 16.8822 19.75 15.8029 19.75 14H18.25ZM18.25 10.3529V14H19.75V10.3529H18.25ZM18.042 7.03962C18.2407 7.65133 18.25 8.43329 18.25 10.3529H19.75C19.75 8.55003 19.7593 7.47071 19.4686 6.57609L18.042 7.03962ZM17.7501 6.35292C17.8663 6.57088 17.9643 6.80043 18.042 7.03962L19.4686 6.57609C19.3635 6.25271 19.231 5.94212 19.0736 5.64708L17.7501 6.35292ZM18.4118 5.25H5.58817V6.75H18.4118V5.25Z" fill="#22272F"/>
<path d="M4 6H20" stroke="#22272F" stroke-width="1.5" stroke-linecap="round"/>
<path d="M14 11L10 15M14 15L10 11" stroke="#22272F" stroke-width="1.5" stroke-linecap="round" stroke-linejoin="round"/>
</svg>
