<svg width="24" height="24" viewBox="0 0 24 24" fill="none" xmlns="http://www.w3.org/2000/svg">
<path d="M8 6C8 5.06812 8 4.60218 8.15224 4.23463C8.35523 3.74458 8.74458 3.35523 9.23463 3.15224C9.60218 3 10.0681 3 11 3H13C13.9319 3 14.3978 3 14.7654 3.15224C15.2554 3.35523 15.6448 3.74458 15.8478 4.23463C16 4.60218 16 5.06812 16 6V6H8V6Z" stroke="#22272F" stroke-width="1.5"/>
<path d="M5 6L19 6" stroke="#22272F" stroke-width="1.5" stroke-linecap="round"/>
<path fill-rule="evenodd" clip-rule="evenodd" d="M5.58817 6C5.45138 6.2565 5.33611 6.52657 5.24472 6.80786C5 7.56102 5 8.49166 5 10.3529V14C5 15.8613 5 16.7919 5.24472 17.5451C5.73931 19.0673 6.93273 20.2607 8.45492 20.7553C9.20808 21 10.1387 21 12 21C13.8613 21 14.7919 21 15.5451 20.7553C17.0673 20.2607 18.2607 19.0673 18.7553 17.5451C19 16.7919 19 15.8613 19 14V10.3529C19 8.49166 19 7.56102 18.7553 6.80786C18.6639 6.52657 18.5486 6.2565 18.4118 6H5.58817ZM9.46967 10.4697C9.76256 10.1768 10.2374 10.1768 10.5303 10.4697L12 11.9393L13.4697 10.4697C13.7626 10.1768 14.2374 10.1768 14.5303 10.4697C14.8232 10.7626 14.8232 11.2374 14.5303 11.5303L13.0607 13L14.5303 14.4697C14.8232 14.7626 14.8232 15.2374 14.5303 15.5303C14.2374 15.8232 13.7626 15.8232 13.4697 15.5303L12 14.0607L10.5303 15.5303C10.2374 15.8232 9.76256 15.8232 9.46967 15.5303C9.17678 15.2374 9.17678 14.7626 9.46967 14.4697L10.9393 13L9.46967 11.5303C9.17678 11.2374 9.17678 10.7626 9.46967 10.4697Z" fill="#22272F"/>
</svg>
